<?xml version="1.0" encoding="utf-8" standalone="no"?>
<!DOCTYPE svg PUBLIC "-//W3C//DTD SVG 1.1//EN"
  "http://www.w3.org/Graphics/SVG/1.1/DTD/svg11.dtd">
<svg xmlns:xlink="http://www.w3.org/1999/xlink" width="504pt" height="504pt" viewBox="0 0 504 504" xmlns="http://www.w3.org/2000/svg" version="1.1">
 <metadata>
  <rdf:RDF xmlns:dc="http://purl.org/dc/elements/1.1/" xmlns:cc="http://creativecommons.org/ns#" xmlns:rdf="http://www.w3.org/1999/02/22-rdf-syntax-ns#">
   <cc:Work>
    <dc:type rdf:resource="http://purl.org/dc/dcmitype/StillImage"/>
    <dc:date>2024-10-15T20:16:30.320883</dc:date>
    <dc:format>image/svg+xml</dc:format>
    <dc:creator>
     <cc:Agent>
      <dc:title>Matplotlib v3.9.2, https://matplotlib.org/</dc:title>
     </cc:Agent>
    </dc:creator>
   </cc:Work>
  </rdf:RDF>
 </metadata>
 <defs>
  <style type="text/css">*{stroke-linejoin: round; stroke-linecap: butt}</style>
 </defs>
 <g id="figure_1">
  <g id="patch_1">
   <path d="M 0 504 
L 504 504 
L 504 0 
L 0 0 
z
" style="fill: #ffffff"/>
  </g>
  <g id="axes_1">
   <g id="patch_2">
    <path d="M 41.96 215.364 
L 482.235074 215.364 
L 482.235074 10.8 
L 41.96 10.8 
z
" style="fill: #ffffff"/>
   </g>
   <g id="patch_3">
    <path d="M 69.898247 206.065636 
C 72.000179 206.065636 74.016304 204.217002 75.502595 200.926874 
C 76.988885 197.636745 77.823991 193.173747 77.823991 188.520803 
C 77.823991 183.867858 76.988885 179.40486 75.502595 176.114732 
C 74.016304 172.824603 72.000179 170.975969 69.898247 170.975969 
C 67.796315 170.975969 65.78019 172.824603 64.2939 176.114732 
C 62.80761 179.40486 61.972503 183.867858 61.972503 188.520803 
C 61.972503 193.173747 62.80761 197.636745 64.2939 200.926874 
C 65.78019 204.217002 67.796315 206.065636 69.898247 206.065636 
L 69.898247 206.065636 
z
" clip-path="url(#p1dae481fb3)" style="fill: none; stroke: #008000; stroke-linejoin: miter"/>
   </g>
   <g id="matplotlib.axis_1">
    <g id="xtick_1">
     <g id="line2d_1">
      <defs>
       <path id="m23275d5a79" d="M 0 0 
L 0 3.5 
" style="stroke: #000000; stroke-width: 0.8"/>
      </defs>
      <g>
       <use xlink:href="#m23275d5a79" x="65.935375" y="215.364" style="stroke: #000000; stroke-width: 0.8"/>
      </g>
     </g>
     <g id="text_1">
      <!-- 0 -->
      <g transform="translate(62.754125 229.962437) scale(0.1 -0.1)">
       <defs>
        <path id="DejaVuSans-30" d="M 2034 4250 
Q 1547 4250 1301 3770 
Q 1056 3291 1056 2328 
Q 1056 1369 1301 889 
Q 1547 409 2034 409 
Q 2525 409 2770 889 
Q 3016 1369 3016 2328 
Q 3016 3291 2770 3770 
Q 2525 4250 2034 4250 
z
M 2034 4750 
Q 2819 4750 3233 4129 
Q 3647 3509 3647 2328 
Q 3647 1150 3233 529 
Q 2819 -91 2034 -91 
Q 1250 -91 836 529 
Q 422 1150 422 2328 
Q 422 3509 836 4129 
Q 1250 4750 2034 4750 
z
" transform="scale(0.015625)"/>
       </defs>
       <use xlink:href="#DejaVuSans-30"/>
      </g>
     </g>
    </g>
    <g id="xtick_2">
     <g id="line2d_2">
      <g>
       <use xlink:href="#m23275d5a79" x="145.192814" y="215.364" style="stroke: #000000; stroke-width: 0.8"/>
      </g>
     </g>
     <g id="text_2">
      <!-- 20 -->
      <g transform="translate(138.830314 229.962437) scale(0.1 -0.1)">
       <defs>
        <path id="DejaVuSans-32" d="M 1228 531 
L 3431 531 
L 3431 0 
L 469 0 
L 469 531 
Q 828 903 1448 1529 
Q 2069 2156 2228 2338 
Q 2531 2678 2651 2914 
Q 2772 3150 2772 3378 
Q 2772 3750 2511 3984 
Q 2250 4219 1831 4219 
Q 1534 4219 1204 4116 
Q 875 4013 500 3803 
L 500 4441 
Q 881 4594 1212 4672 
Q 1544 4750 1819 4750 
Q 2544 4750 2975 4387 
Q 3406 4025 3406 3419 
Q 3406 3131 3298 2873 
Q 3191 2616 2906 2266 
Q 2828 2175 2409 1742 
Q 1991 1309 1228 531 
z
" transform="scale(0.015625)"/>
       </defs>
       <use xlink:href="#DejaVuSans-32"/>
       <use xlink:href="#DejaVuSans-30" x="63.623047"/>
      </g>
     </g>
    </g>
    <g id="xtick_3">
     <g id="line2d_3">
      <g>
       <use xlink:href="#m23275d5a79" x="224.450253" y="215.364" style="stroke: #000000; stroke-width: 0.8"/>
      </g>
     </g>
     <g id="text_3">
      <!-- 40 -->
      <g transform="translate(218.087753 229.962437) scale(0.1 -0.1)">
       <defs>
        <path id="DejaVuSans-34" d="M 2419 4116 
L 825 1625 
L 2419 1625 
L 2419 4116 
z
M 2253 4666 
L 3047 4666 
L 3047 1625 
L 3713 1625 
L 3713 1100 
L 3047 1100 
L 3047 0 
L 2419 0 
L 2419 1100 
L 313 1100 
L 313 1709 
L 2253 4666 
z
" transform="scale(0.015625)"/>
       </defs>
       <use xlink:href="#DejaVuSans-34"/>
       <use xlink:href="#DejaVuSans-30" x="63.623047"/>
      </g>
     </g>
    </g>
    <g id="xtick_4">
     <g id="line2d_4">
      <g>
       <use xlink:href="#m23275d5a79" x="303.707692" y="215.364" style="stroke: #000000; stroke-width: 0.8"/>
      </g>
     </g>
     <g id="text_4">
      <!-- 60 -->
      <g transform="translate(297.345192 229.962437) scale(0.1 -0.1)">
       <defs>
        <path id="DejaVuSans-36" d="M 2113 2584 
Q 1688 2584 1439 2293 
Q 1191 2003 1191 1497 
Q 1191 994 1439 701 
Q 1688 409 2113 409 
Q 2538 409 2786 701 
Q 3034 994 3034 1497 
Q 3034 2003 2786 2293 
Q 2538 2584 2113 2584 
z
M 3366 4563 
L 3366 3988 
Q 3128 4100 2886 4159 
Q 2644 4219 2406 4219 
Q 1781 4219 1451 3797 
Q 1122 3375 1075 2522 
Q 1259 2794 1537 2939 
Q 1816 3084 2150 3084 
Q 2853 3084 3261 2657 
Q 3669 2231 3669 1497 
Q 3669 778 3244 343 
Q 2819 -91 2113 -91 
Q 1303 -91 875 529 
Q 447 1150 447 2328 
Q 447 3434 972 4092 
Q 1497 4750 2381 4750 
Q 2619 4750 2861 4703 
Q 3103 4656 3366 4563 
z
" transform="scale(0.015625)"/>
       </defs>
       <use xlink:href="#DejaVuSans-36"/>
       <use xlink:href="#DejaVuSans-30" x="63.623047"/>
      </g>
     </g>
    </g>
    <g id="xtick_5">
     <g id="line2d_5">
      <g>
       <use xlink:href="#m23275d5a79" x="382.965131" y="215.364" style="stroke: #000000; stroke-width: 0.8"/>
      </g>
     </g>
     <g id="text_5">
      <!-- 80 -->
      <g transform="translate(376.602631 229.962437) scale(0.1 -0.1)">
       <defs>
        <path id="DejaVuSans-38" d="M 2034 2216 
Q 1584 2216 1326 1975 
Q 1069 1734 1069 1313 
Q 1069 891 1326 650 
Q 1584 409 2034 409 
Q 2484 409 2743 651 
Q 3003 894 3003 1313 
Q 3003 1734 2745 1975 
Q 2488 2216 2034 2216 
z
M 1403 2484 
Q 997 2584 770 2862 
Q 544 3141 544 3541 
Q 544 4100 942 4425 
Q 1341 4750 2034 4750 
Q 2731 4750 3128 4425 
Q 3525 4100 3525 3541 
Q 3525 3141 3298 2862 
Q 3072 2584 2669 2484 
Q 3125 2378 3379 2068 
Q 3634 1759 3634 1313 
Q 3634 634 3220 271 
Q 2806 -91 2034 -91 
Q 1263 -91 848 271 
Q 434 634 434 1313 
Q 434 1759 690 2068 
Q 947 2378 1403 2484 
z
M 1172 3481 
Q 1172 3119 1398 2916 
Q 1625 2713 2034 2713 
Q 2441 2713 2670 2916 
Q 2900 3119 2900 3481 
Q 2900 3844 2670 4047 
Q 2441 4250 2034 4250 
Q 1625 4250 1398 4047 
Q 1172 3844 1172 3481 
z
" transform="scale(0.015625)"/>
       </defs>
       <use xlink:href="#DejaVuSans-38"/>
       <use xlink:href="#DejaVuSans-30" x="63.623047"/>
      </g>
     </g>
    </g>
    <g id="xtick_6">
     <g id="line2d_6">
      <g>
       <use xlink:href="#m23275d5a79" x="462.22257" y="215.364" style="stroke: #000000; stroke-width: 0.8"/>
      </g>
     </g>
     <g id="text_6">
      <!-- 100 -->
      <g transform="translate(452.67882 229.962437) scale(0.1 -0.1)">
       <defs>
        <path id="DejaVuSans-31" d="M 794 531 
L 1825 531 
L 1825 4091 
L 703 3866 
L 703 4441 
L 1819 4666 
L 2450 4666 
L 2450 531 
L 3481 531 
L 3481 0 
L 794 0 
L 794 531 
z
" transform="scale(0.015625)"/>
       </defs>
       <use xlink:href="#DejaVuSans-31"/>
       <use xlink:href="#DejaVuSans-30" x="63.623047"/>
       <use xlink:href="#DejaVuSans-30" x="127.246094"/>
      </g>
     </g>
    </g>
   </g>
   <g id="matplotlib.axis_2">
    <g id="ytick_1">
     <g id="line2d_7">
      <defs>
       <path id="m64b63ab8dc" d="M 0 0 
L -3.5 0 
" style="stroke: #000000; stroke-width: 0.8"/>
      </defs>
      <g>
       <use xlink:href="#m64b63ab8dc" x="41.96" y="195.538736" style="stroke: #000000; stroke-width: 0.8"/>
      </g>
     </g>
     <g id="text_7">
      <!-- 0 -->
      <g transform="translate(28.5975 199.337955) scale(0.1 -0.1)">
       <use xlink:href="#DejaVuSans-30"/>
      </g>
     </g>
    </g>
    <g id="ytick_2">
     <g id="line2d_8">
      <g>
       <use xlink:href="#m64b63ab8dc" x="41.96" y="160.449069" style="stroke: #000000; stroke-width: 0.8"/>
      </g>
     </g>
     <g id="text_8">
      <!-- 1 -->
      <g transform="translate(28.5975 164.248287) scale(0.1 -0.1)">
       <use xlink:href="#DejaVuSans-31"/>
      </g>
     </g>
    </g>
    <g id="ytick_3">
     <g id="line2d_9">
      <g>
       <use xlink:href="#m64b63ab8dc" x="41.96" y="125.359401" style="stroke: #000000; stroke-width: 0.8"/>
      </g>
     </g>
     <g id="text_9">
      <!-- 2 -->
      <g transform="translate(28.5975 129.15862) scale(0.1 -0.1)">
       <use xlink:href="#DejaVuSans-32"/>
      </g>
     </g>
    </g>
    <g id="ytick_4">
     <g id="line2d_10">
      <g>
       <use xlink:href="#m64b63ab8dc" x="41.96" y="90.269733" style="stroke: #000000; stroke-width: 0.8"/>
      </g>
     </g>
     <g id="text_10">
      <!-- 3 -->
      <g transform="translate(28.5975 94.068952) scale(0.1 -0.1)">
       <defs>
        <path id="DejaVuSans-33" d="M 2597 2516 
Q 3050 2419 3304 2112 
Q 3559 1806 3559 1356 
Q 3559 666 3084 287 
Q 2609 -91 1734 -91 
Q 1441 -91 1130 -33 
Q 819 25 488 141 
L 488 750 
Q 750 597 1062 519 
Q 1375 441 1716 441 
Q 2309 441 2620 675 
Q 2931 909 2931 1356 
Q 2931 1769 2642 2001 
Q 2353 2234 1838 2234 
L 1294 2234 
L 1294 2753 
L 1863 2753 
Q 2328 2753 2575 2939 
Q 2822 3125 2822 3475 
Q 2822 3834 2567 4026 
Q 2313 4219 1838 4219 
Q 1578 4219 1281 4162 
Q 984 4106 628 3988 
L 628 4550 
Q 988 4650 1302 4700 
Q 1616 4750 1894 4750 
Q 2613 4750 3031 4423 
Q 3450 4097 3450 3541 
Q 3450 3153 3228 2886 
Q 3006 2619 2597 2516 
z
" transform="scale(0.015625)"/>
       </defs>
       <use xlink:href="#DejaVuSans-33"/>
      </g>
     </g>
    </g>
    <g id="ytick_5">
     <g id="line2d_11">
      <g>
       <use xlink:href="#m64b63ab8dc" x="41.96" y="55.180066" style="stroke: #000000; stroke-width: 0.8"/>
      </g>
     </g>
     <g id="text_11">
      <!-- 4 -->
      <g transform="translate(28.5975 58.979285) scale(0.1 -0.1)">
       <use xlink:href="#DejaVuSans-34"/>
      </g>
     </g>
    </g>
    <g id="ytick_6">
     <g id="line2d_12">
      <g>
       <use xlink:href="#m64b63ab8dc" x="41.96" y="20.090398" style="stroke: #000000; stroke-width: 0.8"/>
      </g>
     </g>
     <g id="text_12">
      <!-- 5 -->
      <g transform="translate(28.5975 23.889617) scale(0.1 -0.1)">
       <defs>
        <path id="DejaVuSans-35" d="M 691 4666 
L 3169 4666 
L 3169 4134 
L 1269 4134 
L 1269 2991 
Q 1406 3038 1543 3061 
Q 1681 3084 1819 3084 
Q 2600 3084 3056 2656 
Q 3513 2228 3513 1497 
Q 3513 744 3044 326 
Q 2575 -91 1722 -91 
Q 1428 -91 1123 -41 
Q 819 9 494 109 
L 494 744 
Q 775 591 1075 516 
Q 1375 441 1709 441 
Q 2250 441 2565 725 
Q 2881 1009 2881 1497 
Q 2881 1984 2565 2268 
Q 2250 2553 1709 2553 
Q 1456 2553 1204 2497 
Q 953 2441 691 2322 
L 691 4666 
z
" transform="scale(0.015625)"/>
       </defs>
       <use xlink:href="#DejaVuSans-35"/>
      </g>
     </g>
    </g>
    <g id="text_13">
     <!-- Tensão (V) -->
     <g transform="translate(22.517813 139.170281) rotate(-90) scale(0.1 -0.1)">
      <defs>
       <path id="DejaVuSans-54" d="M -19 4666 
L 3928 4666 
L 3928 4134 
L 2272 4134 
L 2272 0 
L 1638 0 
L 1638 4134 
L -19 4134 
L -19 4666 
z
" transform="scale(0.015625)"/>
       <path id="DejaVuSans-65" d="M 3597 1894 
L 3597 1613 
L 953 1613 
Q 991 1019 1311 708 
Q 1631 397 2203 397 
Q 2534 397 2845 478 
Q 3156 559 3463 722 
L 3463 178 
Q 3153 47 2828 -22 
Q 2503 -91 2169 -91 
Q 1331 -91 842 396 
Q 353 884 353 1716 
Q 353 2575 817 3079 
Q 1281 3584 2069 3584 
Q 2775 3584 3186 3129 
Q 3597 2675 3597 1894 
z
M 3022 2063 
Q 3016 2534 2758 2815 
Q 2500 3097 2075 3097 
Q 1594 3097 1305 2825 
Q 1016 2553 972 2059 
L 3022 2063 
z
" transform="scale(0.015625)"/>
       <path id="DejaVuSans-6e" d="M 3513 2113 
L 3513 0 
L 2938 0 
L 2938 2094 
Q 2938 2591 2744 2837 
Q 2550 3084 2163 3084 
Q 1697 3084 1428 2787 
Q 1159 2491 1159 1978 
L 1159 0 
L 581 0 
L 581 3500 
L 1159 3500 
L 1159 2956 
Q 1366 3272 1645 3428 
Q 1925 3584 2291 3584 
Q 2894 3584 3203 3211 
Q 3513 2838 3513 2113 
z
" transform="scale(0.015625)"/>
       <path id="DejaVuSans-73" d="M 2834 3397 
L 2834 2853 
Q 2591 2978 2328 3040 
Q 2066 3103 1784 3103 
Q 1356 3103 1142 2972 
Q 928 2841 928 2578 
Q 928 2378 1081 2264 
Q 1234 2150 1697 2047 
L 1894 2003 
Q 2506 1872 2764 1633 
Q 3022 1394 3022 966 
Q 3022 478 2636 193 
Q 2250 -91 1575 -91 
Q 1294 -91 989 -36 
Q 684 19 347 128 
L 347 722 
Q 666 556 975 473 
Q 1284 391 1588 391 
Q 1994 391 2212 530 
Q 2431 669 2431 922 
Q 2431 1156 2273 1281 
Q 2116 1406 1581 1522 
L 1381 1569 
Q 847 1681 609 1914 
Q 372 2147 372 2553 
Q 372 3047 722 3315 
Q 1072 3584 1716 3584 
Q 2034 3584 2315 3537 
Q 2597 3491 2834 3397 
z
" transform="scale(0.015625)"/>
       <path id="DejaVuSans-e3" d="M 2194 1759 
Q 1497 1759 1228 1600 
Q 959 1441 959 1056 
Q 959 750 1161 570 
Q 1363 391 1709 391 
Q 2188 391 2477 730 
Q 2766 1069 2766 1631 
L 2766 1759 
L 2194 1759 
z
M 3341 1997 
L 3341 0 
L 2766 0 
L 2766 531 
Q 2569 213 2275 61 
Q 1981 -91 1556 -91 
Q 1019 -91 701 211 
Q 384 513 384 1019 
Q 384 1609 779 1909 
Q 1175 2209 1959 2209 
L 2766 2209 
L 2766 2266 
Q 2766 2663 2505 2880 
Q 2244 3097 1772 3097 
Q 1472 3097 1187 3025 
Q 903 2953 641 2809 
L 641 3341 
Q 956 3463 1253 3523 
Q 1550 3584 1831 3584 
Q 2591 3584 2966 3190 
Q 3341 2797 3341 1997 
z
M 1844 4281 
L 1665 4453 
Q 1597 4516 1545 4545 
Q 1494 4575 1453 4575 
Q 1334 4575 1278 4461 
Q 1222 4347 1215 4091 
L 825 4091 
Q 831 4513 990 4742 
Q 1150 4972 1434 4972 
Q 1553 4972 1653 4928 
Q 1753 4884 1869 4781 
L 2047 4609 
Q 2115 4547 2167 4517 
Q 2219 4488 2259 4488 
Q 2378 4488 2434 4602 
Q 2490 4716 2497 4972 
L 2887 4972 
Q 2881 4550 2721 4320 
Q 2562 4091 2278 4091 
Q 2159 4091 2059 4134 
Q 1959 4178 1844 4281 
z
" transform="scale(0.015625)"/>
       <path id="DejaVuSans-6f" d="M 1959 3097 
Q 1497 3097 1228 2736 
Q 959 2375 959 1747 
Q 959 1119 1226 758 
Q 1494 397 1959 397 
Q 2419 397 2687 759 
Q 2956 1122 2956 1747 
Q 2956 2369 2687 2733 
Q 2419 3097 1959 3097 
z
M 1959 3584 
Q 2709 3584 3137 3096 
Q 3566 2609 3566 1747 
Q 3566 888 3137 398 
Q 2709 -91 1959 -91 
Q 1206 -91 779 398 
Q 353 888 353 1747 
Q 353 2609 779 3096 
Q 1206 3584 1959 3584 
z
" transform="scale(0.015625)"/>
       <path id="DejaVuSans-20" transform="scale(0.015625)"/>
       <path id="DejaVuSans-28" d="M 1984 4856 
Q 1566 4138 1362 3434 
Q 1159 2731 1159 2009 
Q 1159 1288 1364 580 
Q 1569 -128 1984 -844 
L 1484 -844 
Q 1016 -109 783 600 
Q 550 1309 550 2009 
Q 550 2706 781 3412 
Q 1013 4119 1484 4856 
L 1984 4856 
z
" transform="scale(0.015625)"/>
       <path id="DejaVuSans-56" d="M 1831 0 
L 50 4666 
L 709 4666 
L 2188 738 
L 3669 4666 
L 4325 4666 
L 2547 0 
L 1831 0 
z
" transform="scale(0.015625)"/>
       <path id="DejaVuSans-29" d="M 513 4856 
L 1013 4856 
Q 1481 4119 1714 3412 
Q 1947 2706 1947 2009 
Q 1947 1309 1714 600 
Q 1481 -109 1013 -844 
L 513 -844 
Q 928 -128 1133 580 
Q 1338 1288 1338 2009 
Q 1338 2731 1133 3434 
Q 928 4138 513 4856 
z
" transform="scale(0.015625)"/>
      </defs>
      <use xlink:href="#DejaVuSans-54"/>
      <use xlink:href="#DejaVuSans-65" x="44.083984"/>
      <use xlink:href="#DejaVuSans-6e" x="105.607422"/>
      <use xlink:href="#DejaVuSans-73" x="168.986328"/>
      <use xlink:href="#DejaVuSans-e3" x="221.085938"/>
      <use xlink:href="#DejaVuSans-6f" x="282.365234"/>
      <use xlink:href="#DejaVuSans-20" x="343.546875"/>
      <use xlink:href="#DejaVuSans-28" x="375.333984"/>
      <use xlink:href="#DejaVuSans-56" x="414.347656"/>
      <use xlink:href="#DejaVuSans-29" x="482.755859"/>
     </g>
    </g>
   </g>
   <g id="line2d_13">
    <path d="M 65.935375 195.538736 
L 69.636898 192.409597 
L 73.442247 189.483332 
L 77.366087 186.746245 
L 81.425061 184.186104 
L 85.63819 181.792018 
L 90.027271 179.554381 
L 94.61727 177.464852 
L 99.437512 175.516059 
L 104.521879 173.701834 
L 109.910793 172.01682 
L 115.652205 170.456631 
L 121.804566 169.017554 
L 128.440003 167.696528 
L 135.648668 166.491134 
L 143.54628 165.399406 
L 152.284813 164.419781 
L 162.069941 163.551002 
L 173.189568 162.792064 
L 186.065738 162.142082 
L 201.352326 161.600223 
L 220.142094 161.165566 
L 244.467205 160.836892 
L 278.777768 160.612231 
L 336.053977 160.487521 
L 462.22257 160.450662 
L 462.22257 160.450662 
" clip-path="url(#p1dae481fb3)" style="fill: none; stroke: #0000ff; stroke-width: 1.5; stroke-linecap: square"/>
   </g>
   <g id="line2d_14">
    <path d="M 65.935375 195.538736 
L 68.978466 182.570345 
L 72.027898 170.536449 
L 75.084462 159.368757 
L 78.149349 149.002975 
L 81.223945 139.379436 
L 84.309637 130.443407 
L 87.408406 122.143099 
L 90.522234 114.431251 
L 93.653499 107.263802 
L 96.804974 100.599822 
L 99.979831 94.401414 
L 103.181635 88.633595 
L 106.414349 83.264164 
L 109.682928 78.262685 
L 112.99272 73.601494 
L 116.349869 69.255005 
L 119.761309 65.199722 
L 123.235164 61.413797 
L 126.780351 57.877539 
L 130.407173 54.57279 
L 134.127123 51.483205 
L 137.953674 48.593665 
L 141.901687 45.890893 
L 145.988203 43.362927 
L 150.232837 40.999061 
L 154.657782 38.790024 
L 159.288995 36.727553 
L 164.156395 34.804604 
L 169.295053 33.015139 
L 174.746581 31.35402 
L 180.560711 29.816986 
L 186.798275 28.400427 
L 193.534368 27.101417 
L 200.863307 25.917635 
L 208.906752 24.847187 
L 217.8252 23.888581 
L 227.837005 23.040627 
L 239.250874 22.302322 
L 252.522737 21.672821 
L 268.368487 21.151282 
L 288.005121 20.736749 
L 313.754093 20.427905 
L 350.913764 20.222542 
L 416.241939 20.115814 
L 462.22257 20.098364 
L 462.22257 20.098364 
" clip-path="url(#p1dae481fb3)" style="fill: none; stroke: #ff0000; stroke-width: 1.5; stroke-linecap: square"/>
   </g>
   <g id="patch_4">
    <path d="M 41.96 215.364 
L 41.96 10.8 
" style="fill: none; stroke: #000000; stroke-width: 0.8; stroke-linejoin: miter; stroke-linecap: square"/>
   </g>
   <g id="patch_5">
    <path d="M 482.235074 215.364 
L 482.235074 10.8 
" style="fill: none; stroke: #000000; stroke-width: 0.8; stroke-linejoin: miter; stroke-linecap: square"/>
   </g>
   <g id="patch_6">
    <path d="M 41.96 215.364 
L 482.235074 215.364 
" style="fill: none; stroke: #000000; stroke-width: 0.8; stroke-linejoin: miter; stroke-linecap: square"/>
   </g>
   <g id="patch_7">
    <path d="M 41.96 10.8 
L 482.235074 10.8 
" style="fill: none; stroke: #000000; stroke-width: 0.8; stroke-linejoin: miter; stroke-linecap: square"/>
   </g>
   <g id="patch_8">
    <path d="M 305.24677 43.973881 
Q 265.828633 35.745698 227.50494 27.74597 
" style="fill: none; stroke: #ff0000; stroke-linecap: round"/>
    <path d="M 231.362562 30.798633 
L 227.50494 27.74597 
L 232.261644 26.491471 
" style="fill: none; stroke: #ff0000; stroke-linecap: round"/>
   </g>
   <g id="text_14">
    <!-- Resposta ao degrau unitário vezes 5 -->
    <g style="fill: #ff0000" transform="translate(242.848834 55.180066) scale(0.11 -0.11)">
     <defs>
      <path id="DejaVuSans-52" d="M 2841 2188 
Q 3044 2119 3236 1894 
Q 3428 1669 3622 1275 
L 4263 0 
L 3584 0 
L 2988 1197 
Q 2756 1666 2539 1819 
Q 2322 1972 1947 1972 
L 1259 1972 
L 1259 0 
L 628 0 
L 628 4666 
L 2053 4666 
Q 2853 4666 3247 4331 
Q 3641 3997 3641 3322 
Q 3641 2881 3436 2590 
Q 3231 2300 2841 2188 
z
M 1259 4147 
L 1259 2491 
L 2053 2491 
Q 2509 2491 2742 2702 
Q 2975 2913 2975 3322 
Q 2975 3731 2742 3939 
Q 2509 4147 2053 4147 
L 1259 4147 
z
" transform="scale(0.015625)"/>
      <path id="DejaVuSans-70" d="M 1159 525 
L 1159 -1331 
L 581 -1331 
L 581 3500 
L 1159 3500 
L 1159 2969 
Q 1341 3281 1617 3432 
Q 1894 3584 2278 3584 
Q 2916 3584 3314 3078 
Q 3713 2572 3713 1747 
Q 3713 922 3314 415 
Q 2916 -91 2278 -91 
Q 1894 -91 1617 61 
Q 1341 213 1159 525 
z
M 3116 1747 
Q 3116 2381 2855 2742 
Q 2594 3103 2138 3103 
Q 1681 3103 1420 2742 
Q 1159 2381 1159 1747 
Q 1159 1113 1420 752 
Q 1681 391 2138 391 
Q 2594 391 2855 752 
Q 3116 1113 3116 1747 
z
" transform="scale(0.015625)"/>
      <path id="DejaVuSans-74" d="M 1172 4494 
L 1172 3500 
L 2356 3500 
L 2356 3053 
L 1172 3053 
L 1172 1153 
Q 1172 725 1289 603 
Q 1406 481 1766 481 
L 2356 481 
L 2356 0 
L 1766 0 
Q 1100 0 847 248 
Q 594 497 594 1153 
L 594 3053 
L 172 3053 
L 172 3500 
L 594 3500 
L 594 4494 
L 1172 4494 
z
" transform="scale(0.015625)"/>
      <path id="DejaVuSans-61" d="M 2194 1759 
Q 1497 1759 1228 1600 
Q 959 1441 959 1056 
Q 959 750 1161 570 
Q 1363 391 1709 391 
Q 2188 391 2477 730 
Q 2766 1069 2766 1631 
L 2766 1759 
L 2194 1759 
z
M 3341 1997 
L 3341 0 
L 2766 0 
L 2766 531 
Q 2569 213 2275 61 
Q 1981 -91 1556 -91 
Q 1019 -91 701 211 
Q 384 513 384 1019 
Q 384 1609 779 1909 
Q 1175 2209 1959 2209 
L 2766 2209 
L 2766 2266 
Q 2766 2663 2505 2880 
Q 2244 3097 1772 3097 
Q 1472 3097 1187 3025 
Q 903 2953 641 2809 
L 641 3341 
Q 956 3463 1253 3523 
Q 1550 3584 1831 3584 
Q 2591 3584 2966 3190 
Q 3341 2797 3341 1997 
z
" transform="scale(0.015625)"/>
      <path id="DejaVuSans-64" d="M 2906 2969 
L 2906 4863 
L 3481 4863 
L 3481 0 
L 2906 0 
L 2906 525 
Q 2725 213 2448 61 
Q 2172 -91 1784 -91 
Q 1150 -91 751 415 
Q 353 922 353 1747 
Q 353 2572 751 3078 
Q 1150 3584 1784 3584 
Q 2172 3584 2448 3432 
Q 2725 3281 2906 2969 
z
M 947 1747 
Q 947 1113 1208 752 
Q 1469 391 1925 391 
Q 2381 391 2643 752 
Q 2906 1113 2906 1747 
Q 2906 2381 2643 2742 
Q 2381 3103 1925 3103 
Q 1469 3103 1208 2742 
Q 947 2381 947 1747 
z
" transform="scale(0.015625)"/>
      <path id="DejaVuSans-67" d="M 2906 1791 
Q 2906 2416 2648 2759 
Q 2391 3103 1925 3103 
Q 1463 3103 1205 2759 
Q 947 2416 947 1791 
Q 947 1169 1205 825 
Q 1463 481 1925 481 
Q 2391 481 2648 825 
Q 2906 1169 2906 1791 
z
M 3481 434 
Q 3481 -459 3084 -895 
Q 2688 -1331 1869 -1331 
Q 1566 -1331 1297 -1286 
Q 1028 -1241 775 -1147 
L 775 -588 
Q 1028 -725 1275 -790 
Q 1522 -856 1778 -856 
Q 2344 -856 2625 -561 
Q 2906 -266 2906 331 
L 2906 616 
Q 2728 306 2450 153 
Q 2172 0 1784 0 
Q 1141 0 747 490 
Q 353 981 353 1791 
Q 353 2603 747 3093 
Q 1141 3584 1784 3584 
Q 2172 3584 2450 3431 
Q 2728 3278 2906 2969 
L 2906 3500 
L 3481 3500 
L 3481 434 
z
" transform="scale(0.015625)"/>
      <path id="DejaVuSans-72" d="M 2631 2963 
Q 2534 3019 2420 3045 
Q 2306 3072 2169 3072 
Q 1681 3072 1420 2755 
Q 1159 2438 1159 1844 
L 1159 0 
L 581 0 
L 581 3500 
L 1159 3500 
L 1159 2956 
Q 1341 3275 1631 3429 
Q 1922 3584 2338 3584 
Q 2397 3584 2469 3576 
Q 2541 3569 2628 3553 
L 2631 2963 
z
" transform="scale(0.015625)"/>
      <path id="DejaVuSans-75" d="M 544 1381 
L 544 3500 
L 1119 3500 
L 1119 1403 
Q 1119 906 1312 657 
Q 1506 409 1894 409 
Q 2359 409 2629 706 
Q 2900 1003 2900 1516 
L 2900 3500 
L 3475 3500 
L 3475 0 
L 2900 0 
L 2900 538 
Q 2691 219 2414 64 
Q 2138 -91 1772 -91 
Q 1169 -91 856 284 
Q 544 659 544 1381 
z
M 1991 3584 
L 1991 3584 
z
" transform="scale(0.015625)"/>
      <path id="DejaVuSans-69" d="M 603 3500 
L 1178 3500 
L 1178 0 
L 603 0 
L 603 3500 
z
M 603 4863 
L 1178 4863 
L 1178 4134 
L 603 4134 
L 603 4863 
z
" transform="scale(0.015625)"/>
      <path id="DejaVuSans-e1" d="M 2194 1759 
Q 1497 1759 1228 1600 
Q 959 1441 959 1056 
Q 959 750 1161 570 
Q 1363 391 1709 391 
Q 2188 391 2477 730 
Q 2766 1069 2766 1631 
L 2766 1759 
L 2194 1759 
z
M 3341 1997 
L 3341 0 
L 2766 0 
L 2766 531 
Q 2569 213 2275 61 
Q 1981 -91 1556 -91 
Q 1019 -91 701 211 
Q 384 513 384 1019 
Q 384 1609 779 1909 
Q 1175 2209 1959 2209 
L 2766 2209 
L 2766 2266 
Q 2766 2663 2505 2880 
Q 2244 3097 1772 3097 
Q 1472 3097 1187 3025 
Q 903 2953 641 2809 
L 641 3341 
Q 956 3463 1253 3523 
Q 1550 3584 1831 3584 
Q 2591 3584 2966 3190 
Q 3341 2797 3341 1997 
z
M 2290 5119 
L 2912 5119 
L 1894 3944 
L 1415 3944 
L 2290 5119 
z
" transform="scale(0.015625)"/>
      <path id="DejaVuSans-76" d="M 191 3500 
L 800 3500 
L 1894 563 
L 2988 3500 
L 3597 3500 
L 2284 0 
L 1503 0 
L 191 3500 
z
" transform="scale(0.015625)"/>
      <path id="DejaVuSans-7a" d="M 353 3500 
L 3084 3500 
L 3084 2975 
L 922 459 
L 3084 459 
L 3084 0 
L 275 0 
L 275 525 
L 2438 3041 
L 353 3041 
L 353 3500 
z
" transform="scale(0.015625)"/>
     </defs>
     <use xlink:href="#DejaVuSans-52"/>
     <use xlink:href="#DejaVuSans-65" x="64.982422"/>
     <use xlink:href="#DejaVuSans-73" x="126.505859"/>
     <use xlink:href="#DejaVuSans-70" x="178.605469"/>
     <use xlink:href="#DejaVuSans-6f" x="242.082031"/>
     <use xlink:href="#DejaVuSans-73" x="303.263672"/>
     <use xlink:href="#DejaVuSans-74" x="355.363281"/>
     <use xlink:href="#DejaVuSans-61" x="394.572266"/>
     <use xlink:href="#DejaVuSans-20" x="455.851562"/>
     <use xlink:href="#DejaVuSans-61" x="487.638672"/>
     <use xlink:href="#DejaVuSans-6f" x="548.917969"/>
     <use xlink:href="#DejaVuSans-20" x="610.099609"/>
     <use xlink:href="#DejaVuSans-64" x="641.886719"/>
     <use xlink:href="#DejaVuSans-65" x="705.363281"/>
     <use xlink:href="#DejaVuSans-67" x="766.886719"/>
     <use xlink:href="#DejaVuSans-72" x="830.363281"/>
     <use xlink:href="#DejaVuSans-61" x="871.476562"/>
     <use xlink:href="#DejaVuSans-75" x="932.755859"/>
     <use xlink:href="#DejaVuSans-20" x="996.134766"/>
     <use xlink:href="#DejaVuSans-75" x="1027.921875"/>
     <use xlink:href="#DejaVuSans-6e" x="1091.300781"/>
     <use xlink:href="#DejaVuSans-69" x="1154.679688"/>
     <use xlink:href="#DejaVuSans-74" x="1182.462891"/>
     <use xlink:href="#DejaVuSans-e1" x="1221.671875"/>
     <use xlink:href="#DejaVuSans-72" x="1282.951172"/>
     <use xlink:href="#DejaVuSans-69" x="1324.064453"/>
     <use xlink:href="#DejaVuSans-6f" x="1351.847656"/>
     <use xlink:href="#DejaVuSans-20" x="1413.029297"/>
     <use xlink:href="#DejaVuSans-76" x="1444.816406"/>
     <use xlink:href="#DejaVuSans-65" x="1503.996094"/>
     <use xlink:href="#DejaVuSans-7a" x="1565.519531"/>
     <use xlink:href="#DejaVuSans-65" x="1618.009766"/>
     <use xlink:href="#DejaVuSans-73" x="1679.533203"/>
     <use xlink:href="#DejaVuSans-20" x="1731.632812"/>
     <use xlink:href="#DejaVuSans-35" x="1763.419922"/>
    </g>
   </g>
   <g id="patch_9">
    <path d="M 290.975101 173.917493 
Q 258.701373 169.085782 227.533357 164.419608 
" style="fill: none; stroke: #0000ff; stroke-linecap: round"/>
    <path d="M 231.559129 167.246825 
L 227.533357 164.419608 
L 232.210595 162.895321 
" style="fill: none; stroke: #0000ff; stroke-linecap: round"/>
   </g>
   <g id="text_15">
    <!-- Resposta ao degrau unitário -->
    <g style="fill: #0000ff" transform="translate(265.619693 185.011836) scale(0.11 -0.11)">
     <use xlink:href="#DejaVuSans-52"/>
     <use xlink:href="#DejaVuSans-65" x="64.982422"/>
     <use xlink:href="#DejaVuSans-73" x="126.505859"/>
     <use xlink:href="#DejaVuSans-70" x="178.605469"/>
     <use xlink:href="#DejaVuSans-6f" x="242.082031"/>
     <use xlink:href="#DejaVuSans-73" x="303.263672"/>
     <use xlink:href="#DejaVuSans-74" x="355.363281"/>
     <use xlink:href="#DejaVuSans-61" x="394.572266"/>
     <use xlink:href="#DejaVuSans-20" x="455.851562"/>
     <use xlink:href="#DejaVuSans-61" x="487.638672"/>
     <use xlink:href="#DejaVuSans-6f" x="548.917969"/>
     <use xlink:href="#DejaVuSans-20" x="610.099609"/>
     <use xlink:href="#DejaVuSans-64" x="641.886719"/>
     <use xlink:href="#DejaVuSans-65" x="705.363281"/>
     <use xlink:href="#DejaVuSans-67" x="766.886719"/>
     <use xlink:href="#DejaVuSans-72" x="830.363281"/>
     <use xlink:href="#DejaVuSans-61" x="871.476562"/>
     <use xlink:href="#DejaVuSans-75" x="932.755859"/>
     <use xlink:href="#DejaVuSans-20" x="996.134766"/>
     <use xlink:href="#DejaVuSans-75" x="1027.921875"/>
     <use xlink:href="#DejaVuSans-6e" x="1091.300781"/>
     <use xlink:href="#DejaVuSans-69" x="1154.679688"/>
     <use xlink:href="#DejaVuSans-74" x="1182.462891"/>
     <use xlink:href="#DejaVuSans-e1" x="1221.671875"/>
     <use xlink:href="#DejaVuSans-72" x="1282.951172"/>
     <use xlink:href="#DejaVuSans-69" x="1324.064453"/>
     <use xlink:href="#DejaVuSans-6f" x="1351.847656"/>
    </g>
   </g>
   <g id="patch_10">
    <path d="M 235.431107 130.236162 
Q 155.603907 153.831922 76.848882 177.110763 
" style="fill: none; stroke: #008000; stroke-linecap: round"/>
    <path d="M 81.692025 177.973296 
L 76.848882 177.110763 
L 80.444794 173.753768 
" style="fill: none; stroke: #008000; stroke-linecap: round"/>
   </g>
   <g id="text_16">
    <!-- Para um tempo igual a meio periodo da onda quadrada da fonte  -->
    <g style="fill: #008000" transform="translate(104.855442 112.511745) scale(0.11 -0.11)">
     <defs>
      <path id="DejaVuSans-50" d="M 1259 4147 
L 1259 2394 
L 2053 2394 
Q 2494 2394 2734 2622 
Q 2975 2850 2975 3272 
Q 2975 3691 2734 3919 
Q 2494 4147 2053 4147 
L 1259 4147 
z
M 628 4666 
L 2053 4666 
Q 2838 4666 3239 4311 
Q 3641 3956 3641 3272 
Q 3641 2581 3239 2228 
Q 2838 1875 2053 1875 
L 1259 1875 
L 1259 0 
L 628 0 
L 628 4666 
z
" transform="scale(0.015625)"/>
      <path id="DejaVuSans-6d" d="M 3328 2828 
Q 3544 3216 3844 3400 
Q 4144 3584 4550 3584 
Q 5097 3584 5394 3201 
Q 5691 2819 5691 2113 
L 5691 0 
L 5113 0 
L 5113 2094 
Q 5113 2597 4934 2840 
Q 4756 3084 4391 3084 
Q 3944 3084 3684 2787 
Q 3425 2491 3425 1978 
L 3425 0 
L 2847 0 
L 2847 2094 
Q 2847 2600 2669 2842 
Q 2491 3084 2119 3084 
Q 1678 3084 1418 2786 
Q 1159 2488 1159 1978 
L 1159 0 
L 581 0 
L 581 3500 
L 1159 3500 
L 1159 2956 
Q 1356 3278 1631 3431 
Q 1906 3584 2284 3584 
Q 2666 3584 2933 3390 
Q 3200 3197 3328 2828 
z
" transform="scale(0.015625)"/>
      <path id="DejaVuSans-6c" d="M 603 4863 
L 1178 4863 
L 1178 0 
L 603 0 
L 603 4863 
z
" transform="scale(0.015625)"/>
      <path id="DejaVuSans-71" d="M 947 1747 
Q 947 1113 1208 752 
Q 1469 391 1925 391 
Q 2381 391 2643 752 
Q 2906 1113 2906 1747 
Q 2906 2381 2643 2742 
Q 2381 3103 1925 3103 
Q 1469 3103 1208 2742 
Q 947 2381 947 1747 
z
M 2906 525 
Q 2725 213 2448 61 
Q 2172 -91 1784 -91 
Q 1150 -91 751 415 
Q 353 922 353 1747 
Q 353 2572 751 3078 
Q 1150 3584 1784 3584 
Q 2172 3584 2448 3432 
Q 2725 3281 2906 2969 
L 2906 3500 
L 3481 3500 
L 3481 -1331 
L 2906 -1331 
L 2906 525 
z
" transform="scale(0.015625)"/>
      <path id="DejaVuSans-66" d="M 2375 4863 
L 2375 4384 
L 1825 4384 
Q 1516 4384 1395 4259 
Q 1275 4134 1275 3809 
L 1275 3500 
L 2222 3500 
L 2222 3053 
L 1275 3053 
L 1275 0 
L 697 0 
L 697 3053 
L 147 3053 
L 147 3500 
L 697 3500 
L 697 3744 
Q 697 4328 969 4595 
Q 1241 4863 1831 4863 
L 2375 4863 
z
" transform="scale(0.015625)"/>
     </defs>
     <use xlink:href="#DejaVuSans-50"/>
     <use xlink:href="#DejaVuSans-61" x="55.802734"/>
     <use xlink:href="#DejaVuSans-72" x="117.082031"/>
     <use xlink:href="#DejaVuSans-61" x="158.195312"/>
     <use xlink:href="#DejaVuSans-20" x="219.474609"/>
     <use xlink:href="#DejaVuSans-75" x="251.261719"/>
     <use xlink:href="#DejaVuSans-6d" x="314.640625"/>
     <use xlink:href="#DejaVuSans-20" x="412.052734"/>
     <use xlink:href="#DejaVuSans-74" x="443.839844"/>
     <use xlink:href="#DejaVuSans-65" x="483.048828"/>
     <use xlink:href="#DejaVuSans-6d" x="544.572266"/>
     <use xlink:href="#DejaVuSans-70" x="641.984375"/>
     <use xlink:href="#DejaVuSans-6f" x="705.460938"/>
     <use xlink:href="#DejaVuSans-20" x="766.642578"/>
     <use xlink:href="#DejaVuSans-69" x="798.429688"/>
     <use xlink:href="#DejaVuSans-67" x="826.212891"/>
     <use xlink:href="#DejaVuSans-75" x="889.689453"/>
     <use xlink:href="#DejaVuSans-61" x="953.068359"/>
     <use xlink:href="#DejaVuSans-6c" x="1014.347656"/>
     <use xlink:href="#DejaVuSans-20" x="1042.130859"/>
     <use xlink:href="#DejaVuSans-61" x="1073.917969"/>
     <use xlink:href="#DejaVuSans-20" x="1135.197266"/>
     <use xlink:href="#DejaVuSans-6d" x="1166.984375"/>
     <use xlink:href="#DejaVuSans-65" x="1264.396484"/>
     <use xlink:href="#DejaVuSans-69" x="1325.919922"/>
     <use xlink:href="#DejaVuSans-6f" x="1353.703125"/>
     <use xlink:href="#DejaVuSans-20" x="1414.884766"/>
     <use xlink:href="#DejaVuSans-70" x="1446.671875"/>
     <use xlink:href="#DejaVuSans-65" x="1510.148438"/>
     <use xlink:href="#DejaVuSans-72" x="1571.671875"/>
     <use xlink:href="#DejaVuSans-69" x="1612.785156"/>
     <use xlink:href="#DejaVuSans-6f" x="1640.568359"/>
     <use xlink:href="#DejaVuSans-64" x="1701.75"/>
     <use xlink:href="#DejaVuSans-6f" x="1765.226562"/>
     <use xlink:href="#DejaVuSans-20" x="1826.408203"/>
     <use xlink:href="#DejaVuSans-64" x="1858.195312"/>
     <use xlink:href="#DejaVuSans-61" x="1921.671875"/>
     <use xlink:href="#DejaVuSans-20" x="1982.951172"/>
     <use xlink:href="#DejaVuSans-6f" x="2014.738281"/>
     <use xlink:href="#DejaVuSans-6e" x="2075.919922"/>
     <use xlink:href="#DejaVuSans-64" x="2139.298828"/>
     <use xlink:href="#DejaVuSans-61" x="2202.775391"/>
     <use xlink:href="#DejaVuSans-20" x="2264.054688"/>
     <use xlink:href="#DejaVuSans-71" x="2295.841797"/>
     <use xlink:href="#DejaVuSans-75" x="2359.318359"/>
     <use xlink:href="#DejaVuSans-61" x="2422.697266"/>
     <use xlink:href="#DejaVuSans-64" x="2483.976562"/>
     <use xlink:href="#DejaVuSans-72" x="2547.453125"/>
     <use xlink:href="#DejaVuSans-61" x="2588.566406"/>
     <use xlink:href="#DejaVuSans-64" x="2649.845703"/>
     <use xlink:href="#DejaVuSans-61" x="2713.322266"/>
     <use xlink:href="#DejaVuSans-20" x="2774.601562"/>
     <use xlink:href="#DejaVuSans-64" x="2806.388672"/>
     <use xlink:href="#DejaVuSans-61" x="2869.865234"/>
     <use xlink:href="#DejaVuSans-20" x="2931.144531"/>
     <use xlink:href="#DejaVuSans-66" x="2962.931641"/>
     <use xlink:href="#DejaVuSans-6f" x="2998.136719"/>
     <use xlink:href="#DejaVuSans-6e" x="3059.318359"/>
     <use xlink:href="#DejaVuSans-74" x="3122.697266"/>
     <use xlink:href="#DejaVuSans-65" x="3161.90625"/>
     <use xlink:href="#DejaVuSans-20" x="3223.429688"/>
    </g>
    <!--  a resposta da tensão no capacitor é 5 vezes a resposta a $u(t)$ -->
    <g style="fill: #008000" transform="translate(113.008333 125.359401) scale(0.11 -0.11)">
     <defs>
      <path id="DejaVuSans-63" d="M 3122 3366 
L 3122 2828 
Q 2878 2963 2633 3030 
Q 2388 3097 2138 3097 
Q 1578 3097 1268 2742 
Q 959 2388 959 1747 
Q 959 1106 1268 751 
Q 1578 397 2138 397 
Q 2388 397 2633 464 
Q 2878 531 3122 666 
L 3122 134 
Q 2881 22 2623 -34 
Q 2366 -91 2075 -91 
Q 1284 -91 818 406 
Q 353 903 353 1747 
Q 353 2603 823 3093 
Q 1294 3584 2113 3584 
Q 2378 3584 2631 3529 
Q 2884 3475 3122 3366 
z
" transform="scale(0.015625)"/>
      <path id="DejaVuSans-e9" d="M 3597 1894 
L 3597 1613 
L 953 1613 
Q 991 1019 1311 708 
Q 1631 397 2203 397 
Q 2534 397 2845 478 
Q 3156 559 3463 722 
L 3463 178 
Q 3153 47 2828 -22 
Q 2503 -91 2169 -91 
Q 1331 -91 842 396 
Q 353 884 353 1716 
Q 353 2575 817 3079 
Q 1281 3584 2069 3584 
Q 2775 3584 3186 3129 
Q 3597 2675 3597 1894 
z
M 3022 2063 
Q 3016 2534 2758 2815 
Q 2500 3097 2075 3097 
Q 1594 3097 1305 2825 
Q 1016 2553 972 2059 
L 3022 2063 
z
M 2466 5119 
L 3088 5119 
L 2070 3944 
L 1591 3944 
L 2466 5119 
z
" transform="scale(0.015625)"/>
      <path id="DejaVuSans-Oblique-75" d="M 428 1388 
L 838 3500 
L 1416 3500 
L 1006 1409 
Q 975 1256 961 1147 
Q 947 1038 947 966 
Q 947 700 1109 554 
Q 1272 409 1569 409 
Q 2031 409 2368 721 
Q 2706 1034 2809 1563 
L 3194 3500 
L 3769 3500 
L 3091 0 
L 2516 0 
L 2631 550 
Q 2388 244 2052 76 
Q 1716 -91 1338 -91 
Q 878 -91 622 161 
Q 366 413 366 863 
Q 366 956 381 1097 
Q 397 1238 428 1388 
z
" transform="scale(0.015625)"/>
      <path id="DejaVuSans-Oblique-74" d="M 2706 3500 
L 2619 3053 
L 1472 3053 
L 1100 1153 
Q 1081 1047 1072 975 
Q 1063 903 1063 863 
Q 1063 663 1183 572 
Q 1303 481 1569 481 
L 2150 481 
L 2053 0 
L 1503 0 
Q 991 0 739 200 
Q 488 400 488 806 
Q 488 878 497 964 
Q 506 1050 525 1153 
L 897 3053 
L 409 3053 
L 500 3500 
L 978 3500 
L 1172 4494 
L 1747 4494 
L 1556 3500 
L 2706 3500 
z
" transform="scale(0.015625)"/>
     </defs>
     <use xlink:href="#DejaVuSans-20" transform="translate(0 0.015625)"/>
     <use xlink:href="#DejaVuSans-61" transform="translate(31.787109 0.015625)"/>
     <use xlink:href="#DejaVuSans-20" transform="translate(93.066406 0.015625)"/>
     <use xlink:href="#DejaVuSans-72" transform="translate(124.853516 0.015625)"/>
     <use xlink:href="#DejaVuSans-65" transform="translate(165.966797 0.015625)"/>
     <use xlink:href="#DejaVuSans-73" transform="translate(227.490234 0.015625)"/>
     <use xlink:href="#DejaVuSans-70" transform="translate(279.589844 0.015625)"/>
     <use xlink:href="#DejaVuSans-6f" transform="translate(343.066406 0.015625)"/>
     <use xlink:href="#DejaVuSans-73" transform="translate(404.248047 0.015625)"/>
     <use xlink:href="#DejaVuSans-74" transform="translate(456.347656 0.015625)"/>
     <use xlink:href="#DejaVuSans-61" transform="translate(495.556641 0.015625)"/>
     <use xlink:href="#DejaVuSans-20" transform="translate(556.835938 0.015625)"/>
     <use xlink:href="#DejaVuSans-64" transform="translate(588.623047 0.015625)"/>
     <use xlink:href="#DejaVuSans-61" transform="translate(652.099609 0.015625)"/>
     <use xlink:href="#DejaVuSans-20" transform="translate(713.378906 0.015625)"/>
     <use xlink:href="#DejaVuSans-74" transform="translate(745.166016 0.015625)"/>
     <use xlink:href="#DejaVuSans-65" transform="translate(784.375 0.015625)"/>
     <use xlink:href="#DejaVuSans-6e" transform="translate(845.898438 0.015625)"/>
     <use xlink:href="#DejaVuSans-73" transform="translate(909.277344 0.015625)"/>
     <use xlink:href="#DejaVuSans-e3" transform="translate(961.376953 0.015625)"/>
     <use xlink:href="#DejaVuSans-6f" transform="translate(1022.65625 0.015625)"/>
     <use xlink:href="#DejaVuSans-20" transform="translate(1083.837891 0.015625)"/>
     <use xlink:href="#DejaVuSans-6e" transform="translate(1115.625 0.015625)"/>
     <use xlink:href="#DejaVuSans-6f" transform="translate(1179.003906 0.015625)"/>
     <use xlink:href="#DejaVuSans-20" transform="translate(1240.185547 0.015625)"/>
     <use xlink:href="#DejaVuSans-63" transform="translate(1271.972656 0.015625)"/>
     <use xlink:href="#DejaVuSans-61" transform="translate(1326.953125 0.015625)"/>
     <use xlink:href="#DejaVuSans-70" transform="translate(1388.232422 0.015625)"/>
     <use xlink:href="#DejaVuSans-61" transform="translate(1451.708984 0.015625)"/>
     <use xlink:href="#DejaVuSans-63" transform="translate(1512.988281 0.015625)"/>
     <use xlink:href="#DejaVuSans-69" transform="translate(1567.96875 0.015625)"/>
     <use xlink:href="#DejaVuSans-74" transform="translate(1595.751953 0.015625)"/>
     <use xlink:href="#DejaVuSans-6f" transform="translate(1634.960938 0.015625)"/>
     <use xlink:href="#DejaVuSans-72" transform="translate(1696.142578 0.015625)"/>
     <use xlink:href="#DejaVuSans-20" transform="translate(1737.255859 0.015625)"/>
     <use xlink:href="#DejaVuSans-e9" transform="translate(1769.042969 0.015625)"/>
     <use xlink:href="#DejaVuSans-20" transform="translate(1830.566406 0.015625)"/>
     <use xlink:href="#DejaVuSans-35" transform="translate(1862.353516 0.015625)"/>
     <use xlink:href="#DejaVuSans-20" transform="translate(1925.976562 0.015625)"/>
     <use xlink:href="#DejaVuSans-76" transform="translate(1957.763672 0.015625)"/>
     <use xlink:href="#DejaVuSans-65" transform="translate(2016.943359 0.015625)"/>
     <use xlink:href="#DejaVuSans-7a" transform="translate(2078.466797 0.015625)"/>
     <use xlink:href="#DejaVuSans-65" transform="translate(2130.957031 0.015625)"/>
     <use xlink:href="#DejaVuSans-73" transform="translate(2192.480469 0.015625)"/>
     <use xlink:href="#DejaVuSans-20" transform="translate(2244.580078 0.015625)"/>
     <use xlink:href="#DejaVuSans-61" transform="translate(2276.367188 0.015625)"/>
     <use xlink:href="#DejaVuSans-20" transform="translate(2337.646484 0.015625)"/>
     <use xlink:href="#DejaVuSans-72" transform="translate(2369.433594 0.015625)"/>
     <use xlink:href="#DejaVuSans-65" transform="translate(2410.546875 0.015625)"/>
     <use xlink:href="#DejaVuSans-73" transform="translate(2472.070312 0.015625)"/>
     <use xlink:href="#DejaVuSans-70" transform="translate(2524.169922 0.015625)"/>
     <use xlink:href="#DejaVuSans-6f" transform="translate(2587.646484 0.015625)"/>
     <use xlink:href="#DejaVuSans-73" transform="translate(2648.828125 0.015625)"/>
     <use xlink:href="#DejaVuSans-74" transform="translate(2700.927734 0.015625)"/>
     <use xlink:href="#DejaVuSans-61" transform="translate(2740.136719 0.015625)"/>
     <use xlink:href="#DejaVuSans-20" transform="translate(2801.416016 0.015625)"/>
     <use xlink:href="#DejaVuSans-61" transform="translate(2833.203125 0.015625)"/>
     <use xlink:href="#DejaVuSans-20" transform="translate(2894.482422 0.015625)"/>
     <use xlink:href="#DejaVuSans-Oblique-75" transform="translate(2926.269531 0.015625)"/>
     <use xlink:href="#DejaVuSans-28" transform="translate(2989.648438 0.015625)"/>
     <use xlink:href="#DejaVuSans-Oblique-74" transform="translate(3028.662109 0.015625)"/>
     <use xlink:href="#DejaVuSans-29" transform="translate(3067.871094 0.015625)"/>
    </g>
   </g>
  </g>
  <g id="axes_2">
   <g id="patch_11">
    <path d="M 41.96 462.04 
L 482.235074 462.04 
L 482.235074 257.476 
L 41.96 257.476 
z
" style="fill: #ffffff"/>
   </g>
   <g id="patch_12">
    <path d="M 287.591381 424.220844 
C 340.66516 406.442722 388.886128 382.598141 421.634175 357.938592 
C 454.382223 333.279043 468.983617 309.817871 462.22257 292.722124 
C 455.461524 275.626378 427.890046 266.291851 385.580435 266.774364 
C 343.270824 267.256876 289.677472 277.517034 236.603692 295.295156 
C 183.529913 313.073278 135.308946 336.917859 102.560898 361.577408 
C 69.812851 386.236957 55.211457 409.698129 61.972503 426.793876 
C 68.73355 443.889622 96.305028 453.224149 138.614639 452.741636 
C 180.92425 452.259124 234.517602 441.998966 287.591381 424.220844 
L 287.591381 424.220844 
z
" clip-path="url(#p60c4712750)" style="fill: none; stroke: #008000; stroke-linejoin: miter"/>
   </g>
   <g id="matplotlib.axis_3">
    <g id="xtick_7">
     <g id="line2d_15">
      <g>
       <use xlink:href="#m23275d5a79" x="49.128924" y="462.04" style="stroke: #000000; stroke-width: 0.8"/>
      </g>
     </g>
     <g id="text_17">
      <!-- −0.0001 -->
      <g transform="translate(27.443768 476.638437) scale(0.1 -0.1)">
       <defs>
        <path id="DejaVuSans-2212" d="M 678 2272 
L 4684 2272 
L 4684 1741 
L 678 1741 
L 678 2272 
z
" transform="scale(0.015625)"/>
        <path id="DejaVuSans-2e" d="M 684 794 
L 1344 794 
L 1344 0 
L 684 0 
L 684 794 
z
" transform="scale(0.015625)"/>
       </defs>
       <use xlink:href="#DejaVuSans-2212"/>
       <use xlink:href="#DejaVuSans-30" x="83.789062"/>
       <use xlink:href="#DejaVuSans-2e" x="147.412109"/>
       <use xlink:href="#DejaVuSans-30" x="179.199219"/>
       <use xlink:href="#DejaVuSans-30" x="242.822266"/>
       <use xlink:href="#DejaVuSans-30" x="306.445312"/>
       <use xlink:href="#DejaVuSans-31" x="370.068359"/>
      </g>
     </g>
    </g>
    <g id="xtick_8">
     <g id="line2d_16">
      <g>
       <use xlink:href="#m23275d5a79" x="102.371078" y="462.04" style="stroke: #000000; stroke-width: 0.8"/>
      </g>
     </g>
     <g id="text_18">
      <!-- 0.0000 -->
      <g transform="translate(84.875765 476.638437) scale(0.1 -0.1)">
       <use xlink:href="#DejaVuSans-30"/>
       <use xlink:href="#DejaVuSans-2e" x="63.623047"/>
       <use xlink:href="#DejaVuSans-30" x="95.410156"/>
       <use xlink:href="#DejaVuSans-30" x="159.033203"/>
       <use xlink:href="#DejaVuSans-30" x="222.65625"/>
       <use xlink:href="#DejaVuSans-30" x="286.279297"/>
      </g>
     </g>
    </g>
    <g id="xtick_9">
     <g id="line2d_17">
      <g>
       <use xlink:href="#m23275d5a79" x="155.613231" y="462.04" style="stroke: #000000; stroke-width: 0.8"/>
      </g>
     </g>
     <g id="text_19">
      <!-- 0.0001 -->
      <g transform="translate(138.117918 476.638437) scale(0.1 -0.1)">
       <use xlink:href="#DejaVuSans-30"/>
       <use xlink:href="#DejaVuSans-2e" x="63.623047"/>
       <use xlink:href="#DejaVuSans-30" x="95.410156"/>
       <use xlink:href="#DejaVuSans-30" x="159.033203"/>
       <use xlink:href="#DejaVuSans-30" x="222.65625"/>
       <use xlink:href="#DejaVuSans-31" x="286.279297"/>
      </g>
     </g>
    </g>
    <g id="xtick_10">
     <g id="line2d_18">
      <g>
       <use xlink:href="#m23275d5a79" x="208.855384" y="462.04" style="stroke: #000000; stroke-width: 0.8"/>
      </g>
     </g>
     <g id="text_20">
      <!-- 0.0002 -->
      <g transform="translate(191.360071 476.638437) scale(0.1 -0.1)">
       <use xlink:href="#DejaVuSans-30"/>
       <use xlink:href="#DejaVuSans-2e" x="63.623047"/>
       <use xlink:href="#DejaVuSans-30" x="95.410156"/>
       <use xlink:href="#DejaVuSans-30" x="159.033203"/>
       <use xlink:href="#DejaVuSans-30" x="222.65625"/>
       <use xlink:href="#DejaVuSans-32" x="286.279297"/>
      </g>
     </g>
    </g>
    <g id="xtick_11">
     <g id="line2d_19">
      <g>
       <use xlink:href="#m23275d5a79" x="262.097537" y="462.04" style="stroke: #000000; stroke-width: 0.8"/>
      </g>
     </g>
     <g id="text_21">
      <!-- 0.0003 -->
      <g transform="translate(244.602224 476.638437) scale(0.1 -0.1)">
       <use xlink:href="#DejaVuSans-30"/>
       <use xlink:href="#DejaVuSans-2e" x="63.623047"/>
       <use xlink:href="#DejaVuSans-30" x="95.410156"/>
       <use xlink:href="#DejaVuSans-30" x="159.033203"/>
       <use xlink:href="#DejaVuSans-30" x="222.65625"/>
       <use xlink:href="#DejaVuSans-33" x="286.279297"/>
      </g>
     </g>
    </g>
    <g id="xtick_12">
     <g id="line2d_20">
      <g>
       <use xlink:href="#m23275d5a79" x="315.33969" y="462.04" style="stroke: #000000; stroke-width: 0.8"/>
      </g>
     </g>
     <g id="text_22">
      <!-- 0.0004 -->
      <g transform="translate(297.844377 476.638437) scale(0.1 -0.1)">
       <use xlink:href="#DejaVuSans-30"/>
       <use xlink:href="#DejaVuSans-2e" x="63.623047"/>
       <use xlink:href="#DejaVuSans-30" x="95.410156"/>
       <use xlink:href="#DejaVuSans-30" x="159.033203"/>
       <use xlink:href="#DejaVuSans-30" x="222.65625"/>
       <use xlink:href="#DejaVuSans-34" x="286.279297"/>
      </g>
     </g>
    </g>
    <g id="xtick_13">
     <g id="line2d_21">
      <g>
       <use xlink:href="#m23275d5a79" x="368.581843" y="462.04" style="stroke: #000000; stroke-width: 0.8"/>
      </g>
     </g>
     <g id="text_23">
      <!-- 0.0005 -->
      <g transform="translate(351.086531 476.638437) scale(0.1 -0.1)">
       <use xlink:href="#DejaVuSans-30"/>
       <use xlink:href="#DejaVuSans-2e" x="63.623047"/>
       <use xlink:href="#DejaVuSans-30" x="95.410156"/>
       <use xlink:href="#DejaVuSans-30" x="159.033203"/>
       <use xlink:href="#DejaVuSans-30" x="222.65625"/>
       <use xlink:href="#DejaVuSans-35" x="286.279297"/>
      </g>
     </g>
    </g>
    <g id="xtick_14">
     <g id="line2d_22">
      <g>
       <use xlink:href="#m23275d5a79" x="421.823996" y="462.04" style="stroke: #000000; stroke-width: 0.8"/>
      </g>
     </g>
     <g id="text_24">
      <!-- 0.0006 -->
      <g transform="translate(404.328684 476.638437) scale(0.1 -0.1)">
       <use xlink:href="#DejaVuSans-30"/>
       <use xlink:href="#DejaVuSans-2e" x="63.623047"/>
       <use xlink:href="#DejaVuSans-30" x="95.410156"/>
       <use xlink:href="#DejaVuSans-30" x="159.033203"/>
       <use xlink:href="#DejaVuSans-30" x="222.65625"/>
       <use xlink:href="#DejaVuSans-36" x="286.279297"/>
      </g>
     </g>
    </g>
    <g id="xtick_15">
     <g id="line2d_23">
      <g>
       <use xlink:href="#m23275d5a79" x="475.066149" y="462.04" style="stroke: #000000; stroke-width: 0.8"/>
      </g>
     </g>
     <g id="text_25">
      <!-- 0.0007 -->
      <g transform="translate(457.570837 476.638437) scale(0.1 -0.1)">
       <defs>
        <path id="DejaVuSans-37" d="M 525 4666 
L 3525 4666 
L 3525 4397 
L 1831 0 
L 1172 0 
L 2766 4134 
L 525 4134 
L 525 4666 
z
" transform="scale(0.015625)"/>
       </defs>
       <use xlink:href="#DejaVuSans-30"/>
       <use xlink:href="#DejaVuSans-2e" x="63.623047"/>
       <use xlink:href="#DejaVuSans-30" x="95.410156"/>
       <use xlink:href="#DejaVuSans-30" x="159.033203"/>
       <use xlink:href="#DejaVuSans-30" x="222.65625"/>
       <use xlink:href="#DejaVuSans-37" x="286.279297"/>
      </g>
     </g>
    </g>
    <g id="text_26">
     <!-- Segundo -->
     <g transform="translate(240.101443 490.316562) scale(0.1 -0.1)">
      <defs>
       <path id="DejaVuSans-53" d="M 3425 4513 
L 3425 3897 
Q 3066 4069 2747 4153 
Q 2428 4238 2131 4238 
Q 1616 4238 1336 4038 
Q 1056 3838 1056 3469 
Q 1056 3159 1242 3001 
Q 1428 2844 1947 2747 
L 2328 2669 
Q 3034 2534 3370 2195 
Q 3706 1856 3706 1288 
Q 3706 609 3251 259 
Q 2797 -91 1919 -91 
Q 1588 -91 1214 -16 
Q 841 59 441 206 
L 441 856 
Q 825 641 1194 531 
Q 1563 422 1919 422 
Q 2459 422 2753 634 
Q 3047 847 3047 1241 
Q 3047 1584 2836 1778 
Q 2625 1972 2144 2069 
L 1759 2144 
Q 1053 2284 737 2584 
Q 422 2884 422 3419 
Q 422 4038 858 4394 
Q 1294 4750 2059 4750 
Q 2388 4750 2728 4690 
Q 3069 4631 3425 4513 
z
" transform="scale(0.015625)"/>
      </defs>
      <use xlink:href="#DejaVuSans-53"/>
      <use xlink:href="#DejaVuSans-65" x="63.476562"/>
      <use xlink:href="#DejaVuSans-67" x="125"/>
      <use xlink:href="#DejaVuSans-75" x="188.476562"/>
      <use xlink:href="#DejaVuSans-6e" x="251.855469"/>
      <use xlink:href="#DejaVuSans-64" x="315.234375"/>
      <use xlink:href="#DejaVuSans-6f" x="378.710938"/>
     </g>
    </g>
   </g>
   <g id="matplotlib.axis_4">
    <g id="ytick_7">
     <g id="line2d_24">
      <g>
       <use xlink:href="#m64b63ab8dc" x="41.96" y="442.077911" style="stroke: #000000; stroke-width: 0.8"/>
      </g>
     </g>
     <g id="text_27">
      <!-- $\mathdefault{−1.0}$ -->
      <g transform="translate(32.880313 462.578692) rotate(-90) scale(0.1 -0.1)">
       <use xlink:href="#DejaVuSans-2212" transform="translate(0 0.78125)"/>
       <use xlink:href="#DejaVuSans-31" transform="translate(83.789062 0.78125)"/>
       <use xlink:href="#DejaVuSans-2e" transform="translate(147.412109 0.78125)"/>
       <use xlink:href="#DejaVuSans-30" transform="translate(179.199219 0.78125)"/>
      </g>
     </g>
    </g>
    <g id="ytick_8">
     <g id="line2d_25">
      <g>
       <use xlink:href="#m64b63ab8dc" x="41.96" y="417.577937" style="stroke: #000000; stroke-width: 0.8"/>
      </g>
     </g>
     <g id="text_28">
      <!-- $\mathdefault{−0.5}$ -->
      <g transform="translate(32.880313 438.078719) rotate(-90) scale(0.1 -0.1)">
       <use xlink:href="#DejaVuSans-2212" transform="translate(0 0.78125)"/>
       <use xlink:href="#DejaVuSans-30" transform="translate(83.789062 0.78125)"/>
       <use xlink:href="#DejaVuSans-2e" transform="translate(147.412109 0.78125)"/>
       <use xlink:href="#DejaVuSans-35" transform="translate(179.199219 0.78125)"/>
      </g>
     </g>
    </g>
    <g id="ytick_9">
     <g id="line2d_26">
      <g>
       <use xlink:href="#m64b63ab8dc" x="41.96" y="393.077964" style="stroke: #000000; stroke-width: 0.8"/>
      </g>
     </g>
     <g id="text_29">
      <!-- $\mathdefault{0.0}$ -->
      <g transform="translate(32.880313 405.278745) rotate(-90) scale(0.1 -0.1)">
       <use xlink:href="#DejaVuSans-30" transform="translate(0 0.78125)"/>
       <use xlink:href="#DejaVuSans-2e" transform="translate(63.623047 0.78125)"/>
       <use xlink:href="#DejaVuSans-30" transform="translate(95.410156 0.78125)"/>
      </g>
     </g>
    </g>
    <g id="ytick_10">
     <g id="line2d_27">
      <g>
       <use xlink:href="#m64b63ab8dc" x="41.96" y="368.57799" style="stroke: #000000; stroke-width: 0.8"/>
      </g>
     </g>
     <g id="text_30">
      <!-- $\mathdefault{0.5}$ -->
      <g transform="translate(32.880313 380.778772) rotate(-90) scale(0.1 -0.1)">
       <use xlink:href="#DejaVuSans-30" transform="translate(0 0.78125)"/>
       <use xlink:href="#DejaVuSans-2e" transform="translate(63.623047 0.78125)"/>
       <use xlink:href="#DejaVuSans-35" transform="translate(95.410156 0.78125)"/>
      </g>
     </g>
    </g>
    <g id="ytick_11">
     <g id="line2d_28">
      <g>
       <use xlink:href="#m64b63ab8dc" x="41.96" y="344.078017" style="stroke: #000000; stroke-width: 0.8"/>
      </g>
     </g>
     <g id="text_31">
      <!-- $\mathdefault{1.0}$ -->
      <g transform="translate(32.880313 356.278798) rotate(-90) scale(0.1 -0.1)">
       <use xlink:href="#DejaVuSans-31" transform="translate(0 0.78125)"/>
       <use xlink:href="#DejaVuSans-2e" transform="translate(63.623047 0.78125)"/>
       <use xlink:href="#DejaVuSans-30" transform="translate(95.410156 0.78125)"/>
      </g>
     </g>
    </g>
    <g id="ytick_12">
     <g id="line2d_29">
      <g>
       <use xlink:href="#m64b63ab8dc" x="41.96" y="319.578043" style="stroke: #000000; stroke-width: 0.8"/>
      </g>
     </g>
     <g id="text_32">
      <!-- $\mathdefault{1.5}$ -->
      <g transform="translate(32.880313 331.778825) rotate(-90) scale(0.1 -0.1)">
       <use xlink:href="#DejaVuSans-31" transform="translate(0 0.09375)"/>
       <use xlink:href="#DejaVuSans-2e" transform="translate(63.623047 0.09375)"/>
       <use xlink:href="#DejaVuSans-35" transform="translate(95.410156 0.09375)"/>
      </g>
     </g>
    </g>
    <g id="ytick_13">
     <g id="line2d_30">
      <g>
       <use xlink:href="#m64b63ab8dc" x="41.96" y="295.07807" style="stroke: #000000; stroke-width: 0.8"/>
      </g>
     </g>
     <g id="text_33">
      <!-- $\mathdefault{2.0}$ -->
      <g transform="translate(32.880313 307.278851) rotate(-90) scale(0.1 -0.1)">
       <use xlink:href="#DejaVuSans-32" transform="translate(0 0.78125)"/>
       <use xlink:href="#DejaVuSans-2e" transform="translate(63.623047 0.78125)"/>
       <use xlink:href="#DejaVuSans-30" transform="translate(95.410156 0.78125)"/>
      </g>
     </g>
    </g>
    <g id="ytick_14">
     <g id="line2d_31">
      <g>
       <use xlink:href="#m64b63ab8dc" x="41.96" y="270.578096" style="stroke: #000000; stroke-width: 0.8"/>
      </g>
     </g>
     <g id="text_34">
      <!-- $\mathdefault{2.5}$ -->
      <g transform="translate(32.880313 282.778878) rotate(-90) scale(0.1 -0.1)">
       <use xlink:href="#DejaVuSans-32" transform="translate(0 0.78125)"/>
       <use xlink:href="#DejaVuSans-2e" transform="translate(63.623047 0.78125)"/>
       <use xlink:href="#DejaVuSans-35" transform="translate(95.410156 0.78125)"/>
      </g>
     </g>
    </g>
    <g id="text_35">
     <!-- Tensão (V) -->
     <g transform="translate(19.202188 385.846281) rotate(-90) scale(0.1 -0.1)">
      <use xlink:href="#DejaVuSans-54"/>
      <use xlink:href="#DejaVuSans-65" x="44.083984"/>
      <use xlink:href="#DejaVuSans-6e" x="105.607422"/>
      <use xlink:href="#DejaVuSans-73" x="168.986328"/>
      <use xlink:href="#DejaVuSans-e3" x="221.085938"/>
      <use xlink:href="#DejaVuSans-6f" x="282.365234"/>
      <use xlink:href="#DejaVuSans-20" x="343.546875"/>
      <use xlink:href="#DejaVuSans-28" x="375.333984"/>
      <use xlink:href="#DejaVuSans-56" x="414.347656"/>
      <use xlink:href="#DejaVuSans-29" x="482.755859"/>
     </g>
    </g>
    <g id="text_36">
     <!-- $\times\mathdefault{10^{−4}}\mathdefault{}$ -->
     <g transform="translate(41.96 254.476) scale(0.1 -0.1)">
      <defs>
       <path id="DejaVuSans-d7" d="M 4488 3438 
L 3059 2003 
L 4488 575 
L 4116 197 
L 2681 1631 
L 1247 197 
L 878 575 
L 2303 2003 
L 878 3438 
L 1247 3816 
L 2681 2381 
L 4116 3816 
L 4488 3438 
z
" transform="scale(0.015625)"/>
      </defs>
      <use xlink:href="#DejaVuSans-d7" transform="translate(0 0.684375)"/>
      <use xlink:href="#DejaVuSans-31" transform="translate(83.789062 0.684375)"/>
      <use xlink:href="#DejaVuSans-30" transform="translate(147.412109 0.684375)"/>
      <use xlink:href="#DejaVuSans-2212" transform="translate(211.992188 38.965625) scale(0.7)"/>
      <use xlink:href="#DejaVuSans-34" transform="translate(270.644531 38.965625) scale(0.7)"/>
     </g>
    </g>
   </g>
   <g id="line2d_32">
    <path d="M 102.371078 393.077964 
L 368.581843 368.578603 
L 368.581843 368.578603 
" clip-path="url(#p60c4712750)" style="fill: none; stroke: #0000ff; stroke-width: 1.5; stroke-linecap: square"/>
   </g>
   <g id="line2d_33">
    <path d="M 102.371078 393.077964 
L 368.581843 270.581159 
L 368.581843 270.581159 
" clip-path="url(#p60c4712750)" style="fill: none; stroke: #ff0000; stroke-width: 1.5; stroke-linecap: square"/>
   </g>
   <g id="patch_13">
    <path d="M 41.96 462.04 
L 41.96 257.476 
" style="fill: none; stroke: #000000; stroke-width: 0.8; stroke-linejoin: miter; stroke-linecap: square"/>
   </g>
   <g id="patch_14">
    <path d="M 482.235074 462.04 
L 482.235074 257.476 
" style="fill: none; stroke: #000000; stroke-width: 0.8; stroke-linejoin: miter; stroke-linecap: square"/>
   </g>
   <g id="patch_15">
    <path d="M 41.96 462.04 
L 482.235074 462.04 
" style="fill: none; stroke: #000000; stroke-width: 0.8; stroke-linejoin: miter; stroke-linecap: square"/>
   </g>
   <g id="patch_16">
    <path d="M 41.96 257.476 
L 482.235074 257.476 
" style="fill: none; stroke: #000000; stroke-width: 0.8; stroke-linejoin: miter; stroke-linecap: square"/>
   </g>
   <g id="text_37">
    <!-- Comportamento linear nos momentos inicias  -->
    <g style="fill: #008000" transform="translate(46.723383 272.202445) scale(0.1 -0.1)">
     <defs>
      <path id="DejaVuSans-43" d="M 4122 4306 
L 4122 3641 
Q 3803 3938 3442 4084 
Q 3081 4231 2675 4231 
Q 1875 4231 1450 3742 
Q 1025 3253 1025 2328 
Q 1025 1406 1450 917 
Q 1875 428 2675 428 
Q 3081 428 3442 575 
Q 3803 722 4122 1019 
L 4122 359 
Q 3791 134 3420 21 
Q 3050 -91 2638 -91 
Q 1578 -91 968 557 
Q 359 1206 359 2328 
Q 359 3453 968 4101 
Q 1578 4750 2638 4750 
Q 3056 4750 3426 4639 
Q 3797 4528 4122 4306 
z
" transform="scale(0.015625)"/>
     </defs>
     <use xlink:href="#DejaVuSans-43"/>
     <use xlink:href="#DejaVuSans-6f" x="69.824219"/>
     <use xlink:href="#DejaVuSans-6d" x="131.005859"/>
     <use xlink:href="#DejaVuSans-70" x="228.417969"/>
     <use xlink:href="#DejaVuSans-6f" x="291.894531"/>
     <use xlink:href="#DejaVuSans-72" x="353.076172"/>
     <use xlink:href="#DejaVuSans-74" x="394.189453"/>
     <use xlink:href="#DejaVuSans-61" x="433.398438"/>
     <use xlink:href="#DejaVuSans-6d" x="494.677734"/>
     <use xlink:href="#DejaVuSans-65" x="592.089844"/>
     <use xlink:href="#DejaVuSans-6e" x="653.613281"/>
     <use xlink:href="#DejaVuSans-74" x="716.992188"/>
     <use xlink:href="#DejaVuSans-6f" x="756.201172"/>
     <use xlink:href="#DejaVuSans-20" x="817.382812"/>
     <use xlink:href="#DejaVuSans-6c" x="849.169922"/>
     <use xlink:href="#DejaVuSans-69" x="876.953125"/>
     <use xlink:href="#DejaVuSans-6e" x="904.736328"/>
     <use xlink:href="#DejaVuSans-65" x="968.115234"/>
     <use xlink:href="#DejaVuSans-61" x="1029.638672"/>
     <use xlink:href="#DejaVuSans-72" x="1090.917969"/>
     <use xlink:href="#DejaVuSans-20" x="1132.03125"/>
     <use xlink:href="#DejaVuSans-6e" x="1163.818359"/>
     <use xlink:href="#DejaVuSans-6f" x="1227.197266"/>
     <use xlink:href="#DejaVuSans-73" x="1288.378906"/>
     <use xlink:href="#DejaVuSans-20" x="1340.478516"/>
     <use xlink:href="#DejaVuSans-6d" x="1372.265625"/>
     <use xlink:href="#DejaVuSans-6f" x="1469.677734"/>
     <use xlink:href="#DejaVuSans-6d" x="1530.859375"/>
     <use xlink:href="#DejaVuSans-65" x="1628.271484"/>
     <use xlink:href="#DejaVuSans-6e" x="1689.794922"/>
     <use xlink:href="#DejaVuSans-74" x="1753.173828"/>
     <use xlink:href="#DejaVuSans-6f" x="1792.382812"/>
     <use xlink:href="#DejaVuSans-73" x="1853.564453"/>
     <use xlink:href="#DejaVuSans-20" x="1905.664062"/>
     <use xlink:href="#DejaVuSans-69" x="1937.451172"/>
     <use xlink:href="#DejaVuSans-6e" x="1965.234375"/>
     <use xlink:href="#DejaVuSans-69" x="2028.613281"/>
     <use xlink:href="#DejaVuSans-63" x="2056.396484"/>
     <use xlink:href="#DejaVuSans-69" x="2111.376953"/>
     <use xlink:href="#DejaVuSans-61" x="2139.160156"/>
     <use xlink:href="#DejaVuSans-73" x="2200.439453"/>
     <use xlink:href="#DejaVuSans-20" x="2252.539062"/>
    </g>
    <!--  da resposta ao degrau unitário  -->
    <g style="fill: #008000" transform="translate(80.586665 283.880257) scale(0.1 -0.1)">
     <use xlink:href="#DejaVuSans-20"/>
     <use xlink:href="#DejaVuSans-64" x="31.787109"/>
     <use xlink:href="#DejaVuSans-61" x="95.263672"/>
     <use xlink:href="#DejaVuSans-20" x="156.542969"/>
     <use xlink:href="#DejaVuSans-72" x="188.330078"/>
     <use xlink:href="#DejaVuSans-65" x="227.193359"/>
     <use xlink:href="#DejaVuSans-73" x="288.716797"/>
     <use xlink:href="#DejaVuSans-70" x="340.816406"/>
     <use xlink:href="#DejaVuSans-6f" x="404.292969"/>
     <use xlink:href="#DejaVuSans-73" x="465.474609"/>
     <use xlink:href="#DejaVuSans-74" x="517.574219"/>
     <use xlink:href="#DejaVuSans-61" x="556.783203"/>
     <use xlink:href="#DejaVuSans-20" x="618.0625"/>
     <use xlink:href="#DejaVuSans-61" x="649.849609"/>
     <use xlink:href="#DejaVuSans-6f" x="711.128906"/>
     <use xlink:href="#DejaVuSans-20" x="772.310547"/>
     <use xlink:href="#DejaVuSans-64" x="804.097656"/>
     <use xlink:href="#DejaVuSans-65" x="867.574219"/>
     <use xlink:href="#DejaVuSans-67" x="929.097656"/>
     <use xlink:href="#DejaVuSans-72" x="992.574219"/>
     <use xlink:href="#DejaVuSans-61" x="1033.6875"/>
     <use xlink:href="#DejaVuSans-75" x="1094.966797"/>
     <use xlink:href="#DejaVuSans-20" x="1158.345703"/>
     <use xlink:href="#DejaVuSans-75" x="1190.132812"/>
     <use xlink:href="#DejaVuSans-6e" x="1253.511719"/>
     <use xlink:href="#DejaVuSans-69" x="1316.890625"/>
     <use xlink:href="#DejaVuSans-74" x="1344.673828"/>
     <use xlink:href="#DejaVuSans-e1" x="1383.882812"/>
     <use xlink:href="#DejaVuSans-72" x="1445.162109"/>
     <use xlink:href="#DejaVuSans-69" x="1486.275391"/>
     <use xlink:href="#DejaVuSans-6f" x="1514.058594"/>
     <use xlink:href="#DejaVuSans-20" x="1575.240234"/>
    </g>
    <!-- e multiplicado por 5 -->
    <g style="fill: #008000" transform="translate(110.846821 295.07807) scale(0.1 -0.1)">
     <use xlink:href="#DejaVuSans-65"/>
     <use xlink:href="#DejaVuSans-20" x="61.523438"/>
     <use xlink:href="#DejaVuSans-6d" x="93.310547"/>
     <use xlink:href="#DejaVuSans-75" x="190.722656"/>
     <use xlink:href="#DejaVuSans-6c" x="254.101562"/>
     <use xlink:href="#DejaVuSans-74" x="281.884766"/>
     <use xlink:href="#DejaVuSans-69" x="321.09375"/>
     <use xlink:href="#DejaVuSans-70" x="348.876953"/>
     <use xlink:href="#DejaVuSans-6c" x="412.353516"/>
     <use xlink:href="#DejaVuSans-69" x="440.136719"/>
     <use xlink:href="#DejaVuSans-63" x="467.919922"/>
     <use xlink:href="#DejaVuSans-61" x="522.900391"/>
     <use xlink:href="#DejaVuSans-64" x="584.179688"/>
     <use xlink:href="#DejaVuSans-6f" x="647.65625"/>
     <use xlink:href="#DejaVuSans-20" x="708.837891"/>
     <use xlink:href="#DejaVuSans-70" x="740.625"/>
     <use xlink:href="#DejaVuSans-6f" x="804.101562"/>
     <use xlink:href="#DejaVuSans-72" x="865.283203"/>
     <use xlink:href="#DejaVuSans-20" x="906.396484"/>
     <use xlink:href="#DejaVuSans-35" x="938.183594"/>
    </g>
   </g>
  </g>
 </g>
 <defs>
  <clipPath id="p1dae481fb3">
   <rect x="41.96" y="10.8" width="440.275074" height="204.564"/>
  </clipPath>
  <clipPath id="p60c4712750">
   <rect x="41.96" y="257.476" width="440.275074" height="204.564"/>
  </clipPath>
 </defs>
</svg>
