<?xml version="1.0" encoding="utf-8" standalone="no"?>
<!DOCTYPE svg PUBLIC "-//W3C//DTD SVG 1.1//EN"
  "http://www.w3.org/Graphics/SVG/1.1/DTD/svg11.dtd">
<svg xmlns:xlink="http://www.w3.org/1999/xlink" width="504pt" height="504pt" viewBox="0 0 504 504" xmlns="http://www.w3.org/2000/svg" version="1.1">
 <metadata>
  <rdf:RDF xmlns:dc="http://purl.org/dc/elements/1.1/" xmlns:cc="http://creativecommons.org/ns#" xmlns:rdf="http://www.w3.org/1999/02/22-rdf-syntax-ns#">
   <cc:Work>
    <dc:type rdf:resource="http://purl.org/dc/dcmitype/StillImage"/>
    <dc:date>2024-10-15T21:00:44.095270</dc:date>
    <dc:format>image/svg+xml</dc:format>
    <dc:creator>
     <cc:Agent>
      <dc:title>Matplotlib v3.9.2, https://matplotlib.org/</dc:title>
     </cc:Agent>
    </dc:creator>
   </cc:Work>
  </rdf:RDF>
 </metadata>
 <defs>
  <style type="text/css">*{stroke-linejoin: round; stroke-linecap: butt}</style>
 </defs>
 <g id="figure_1">
  <g id="patch_1">
   <path d="M 0 504 
L 504 504 
L 504 0 
L 0 0 
z
" style="fill: #ffffff"/>
  </g>
  <g id="axes_1">
   <g id="patch_2">
    <path d="M 63 236.88 
L 453.6 236.88 
L 453.6 60.48 
L 63 60.48 
z
" style="fill: #ffffff"/>
   </g>
   <g id="matplotlib.axis_1">
    <g id="xtick_1">
     <g id="line2d_1">
      <defs>
       <path id="m068a3f93ec" d="M 0 0 
L 0 3.5 
" style="stroke: #000000; stroke-width: 0.8"/>
      </defs>
      <g>
       <use xlink:href="#m068a3f93ec" x="80.754545" y="236.88" style="stroke: #000000; stroke-width: 0.8"/>
      </g>
     </g>
     <g id="text_1">
      <!-- 0.00 -->
      <g transform="translate(69.621733 251.478437) scale(0.1 -0.1)">
       <defs>
        <path id="DejaVuSans-30" d="M 2034 4250 
Q 1547 4250 1301 3770 
Q 1056 3291 1056 2328 
Q 1056 1369 1301 889 
Q 1547 409 2034 409 
Q 2525 409 2770 889 
Q 3016 1369 3016 2328 
Q 3016 3291 2770 3770 
Q 2525 4250 2034 4250 
z
M 2034 4750 
Q 2819 4750 3233 4129 
Q 3647 3509 3647 2328 
Q 3647 1150 3233 529 
Q 2819 -91 2034 -91 
Q 1250 -91 836 529 
Q 422 1150 422 2328 
Q 422 3509 836 4129 
Q 1250 4750 2034 4750 
z
" transform="scale(0.015625)"/>
        <path id="DejaVuSans-2e" d="M 684 794 
L 1344 794 
L 1344 0 
L 684 0 
L 684 794 
z
" transform="scale(0.015625)"/>
       </defs>
       <use xlink:href="#DejaVuSans-30"/>
       <use xlink:href="#DejaVuSans-2e" x="63.623047"/>
       <use xlink:href="#DejaVuSans-30" x="95.410156"/>
       <use xlink:href="#DejaVuSans-30" x="159.033203"/>
      </g>
     </g>
    </g>
    <g id="xtick_2">
     <g id="line2d_2">
      <g>
       <use xlink:href="#m068a3f93ec" x="125.140909" y="236.88" style="stroke: #000000; stroke-width: 0.8"/>
      </g>
     </g>
     <g id="text_2">
      <!-- 0.05 -->
      <g transform="translate(114.008097 251.478437) scale(0.1 -0.1)">
       <defs>
        <path id="DejaVuSans-35" d="M 691 4666 
L 3169 4666 
L 3169 4134 
L 1269 4134 
L 1269 2991 
Q 1406 3038 1543 3061 
Q 1681 3084 1819 3084 
Q 2600 3084 3056 2656 
Q 3513 2228 3513 1497 
Q 3513 744 3044 326 
Q 2575 -91 1722 -91 
Q 1428 -91 1123 -41 
Q 819 9 494 109 
L 494 744 
Q 775 591 1075 516 
Q 1375 441 1709 441 
Q 2250 441 2565 725 
Q 2881 1009 2881 1497 
Q 2881 1984 2565 2268 
Q 2250 2553 1709 2553 
Q 1456 2553 1204 2497 
Q 953 2441 691 2322 
L 691 4666 
z
" transform="scale(0.015625)"/>
       </defs>
       <use xlink:href="#DejaVuSans-30"/>
       <use xlink:href="#DejaVuSans-2e" x="63.623047"/>
       <use xlink:href="#DejaVuSans-30" x="95.410156"/>
       <use xlink:href="#DejaVuSans-35" x="159.033203"/>
      </g>
     </g>
    </g>
    <g id="xtick_3">
     <g id="line2d_3">
      <g>
       <use xlink:href="#m068a3f93ec" x="169.527273" y="236.88" style="stroke: #000000; stroke-width: 0.8"/>
      </g>
     </g>
     <g id="text_3">
      <!-- 0.10 -->
      <g transform="translate(158.39446 251.478437) scale(0.1 -0.1)">
       <defs>
        <path id="DejaVuSans-31" d="M 794 531 
L 1825 531 
L 1825 4091 
L 703 3866 
L 703 4441 
L 1819 4666 
L 2450 4666 
L 2450 531 
L 3481 531 
L 3481 0 
L 794 0 
L 794 531 
z
" transform="scale(0.015625)"/>
       </defs>
       <use xlink:href="#DejaVuSans-30"/>
       <use xlink:href="#DejaVuSans-2e" x="63.623047"/>
       <use xlink:href="#DejaVuSans-31" x="95.410156"/>
       <use xlink:href="#DejaVuSans-30" x="159.033203"/>
      </g>
     </g>
    </g>
    <g id="xtick_4">
     <g id="line2d_4">
      <g>
       <use xlink:href="#m068a3f93ec" x="213.913636" y="236.88" style="stroke: #000000; stroke-width: 0.8"/>
      </g>
     </g>
     <g id="text_4">
      <!-- 0.15 -->
      <g transform="translate(202.780824 251.478437) scale(0.1 -0.1)">
       <use xlink:href="#DejaVuSans-30"/>
       <use xlink:href="#DejaVuSans-2e" x="63.623047"/>
       <use xlink:href="#DejaVuSans-31" x="95.410156"/>
       <use xlink:href="#DejaVuSans-35" x="159.033203"/>
      </g>
     </g>
    </g>
    <g id="xtick_5">
     <g id="line2d_5">
      <g>
       <use xlink:href="#m068a3f93ec" x="258.3" y="236.88" style="stroke: #000000; stroke-width: 0.8"/>
      </g>
     </g>
     <g id="text_5">
      <!-- 0.20 -->
      <g transform="translate(247.167187 251.478437) scale(0.1 -0.1)">
       <defs>
        <path id="DejaVuSans-32" d="M 1228 531 
L 3431 531 
L 3431 0 
L 469 0 
L 469 531 
Q 828 903 1448 1529 
Q 2069 2156 2228 2338 
Q 2531 2678 2651 2914 
Q 2772 3150 2772 3378 
Q 2772 3750 2511 3984 
Q 2250 4219 1831 4219 
Q 1534 4219 1204 4116 
Q 875 4013 500 3803 
L 500 4441 
Q 881 4594 1212 4672 
Q 1544 4750 1819 4750 
Q 2544 4750 2975 4387 
Q 3406 4025 3406 3419 
Q 3406 3131 3298 2873 
Q 3191 2616 2906 2266 
Q 2828 2175 2409 1742 
Q 1991 1309 1228 531 
z
" transform="scale(0.015625)"/>
       </defs>
       <use xlink:href="#DejaVuSans-30"/>
       <use xlink:href="#DejaVuSans-2e" x="63.623047"/>
       <use xlink:href="#DejaVuSans-32" x="95.410156"/>
       <use xlink:href="#DejaVuSans-30" x="159.033203"/>
      </g>
     </g>
    </g>
    <g id="xtick_6">
     <g id="line2d_6">
      <g>
       <use xlink:href="#m068a3f93ec" x="302.686364" y="236.88" style="stroke: #000000; stroke-width: 0.8"/>
      </g>
     </g>
     <g id="text_6">
      <!-- 0.25 -->
      <g transform="translate(291.553551 251.478437) scale(0.1 -0.1)">
       <use xlink:href="#DejaVuSans-30"/>
       <use xlink:href="#DejaVuSans-2e" x="63.623047"/>
       <use xlink:href="#DejaVuSans-32" x="95.410156"/>
       <use xlink:href="#DejaVuSans-35" x="159.033203"/>
      </g>
     </g>
    </g>
    <g id="xtick_7">
     <g id="line2d_7">
      <g>
       <use xlink:href="#m068a3f93ec" x="347.072727" y="236.88" style="stroke: #000000; stroke-width: 0.8"/>
      </g>
     </g>
     <g id="text_7">
      <!-- 0.30 -->
      <g transform="translate(335.939915 251.478437) scale(0.1 -0.1)">
       <defs>
        <path id="DejaVuSans-33" d="M 2597 2516 
Q 3050 2419 3304 2112 
Q 3559 1806 3559 1356 
Q 3559 666 3084 287 
Q 2609 -91 1734 -91 
Q 1441 -91 1130 -33 
Q 819 25 488 141 
L 488 750 
Q 750 597 1062 519 
Q 1375 441 1716 441 
Q 2309 441 2620 675 
Q 2931 909 2931 1356 
Q 2931 1769 2642 2001 
Q 2353 2234 1838 2234 
L 1294 2234 
L 1294 2753 
L 1863 2753 
Q 2328 2753 2575 2939 
Q 2822 3125 2822 3475 
Q 2822 3834 2567 4026 
Q 2313 4219 1838 4219 
Q 1578 4219 1281 4162 
Q 984 4106 628 3988 
L 628 4550 
Q 988 4650 1302 4700 
Q 1616 4750 1894 4750 
Q 2613 4750 3031 4423 
Q 3450 4097 3450 3541 
Q 3450 3153 3228 2886 
Q 3006 2619 2597 2516 
z
" transform="scale(0.015625)"/>
       </defs>
       <use xlink:href="#DejaVuSans-30"/>
       <use xlink:href="#DejaVuSans-2e" x="63.623047"/>
       <use xlink:href="#DejaVuSans-33" x="95.410156"/>
       <use xlink:href="#DejaVuSans-30" x="159.033203"/>
      </g>
     </g>
    </g>
    <g id="xtick_8">
     <g id="line2d_8">
      <g>
       <use xlink:href="#m068a3f93ec" x="391.459091" y="236.88" style="stroke: #000000; stroke-width: 0.8"/>
      </g>
     </g>
     <g id="text_8">
      <!-- 0.35 -->
      <g transform="translate(380.326278 251.478437) scale(0.1 -0.1)">
       <use xlink:href="#DejaVuSans-30"/>
       <use xlink:href="#DejaVuSans-2e" x="63.623047"/>
       <use xlink:href="#DejaVuSans-33" x="95.410156"/>
       <use xlink:href="#DejaVuSans-35" x="159.033203"/>
      </g>
     </g>
    </g>
    <g id="xtick_9">
     <g id="line2d_9">
      <g>
       <use xlink:href="#m068a3f93ec" x="435.845455" y="236.88" style="stroke: #000000; stroke-width: 0.8"/>
      </g>
     </g>
     <g id="text_9">
      <!-- 0.40 -->
      <g transform="translate(424.712642 251.478437) scale(0.1 -0.1)">
       <defs>
        <path id="DejaVuSans-34" d="M 2419 4116 
L 825 1625 
L 2419 1625 
L 2419 4116 
z
M 2253 4666 
L 3047 4666 
L 3047 1625 
L 3713 1625 
L 3713 1100 
L 3047 1100 
L 3047 0 
L 2419 0 
L 2419 1100 
L 313 1100 
L 313 1709 
L 2253 4666 
z
" transform="scale(0.015625)"/>
       </defs>
       <use xlink:href="#DejaVuSans-30"/>
       <use xlink:href="#DejaVuSans-2e" x="63.623047"/>
       <use xlink:href="#DejaVuSans-34" x="95.410156"/>
       <use xlink:href="#DejaVuSans-30" x="159.033203"/>
      </g>
     </g>
    </g>
   </g>
   <g id="matplotlib.axis_2">
    <g id="ytick_1">
     <g id="line2d_10">
      <defs>
       <path id="m18a654c1ec" d="M 0 0 
L -3.5 0 
" style="stroke: #000000; stroke-width: 0.8"/>
      </defs>
      <g>
       <use xlink:href="#m18a654c1ec" x="63" y="228.861818" style="stroke: #000000; stroke-width: 0.8"/>
      </g>
     </g>
     <g id="text_10">
      <!-- 0.0 -->
      <g transform="translate(53.920312 240.965724) rotate(-90) scale(0.1 -0.1)">
       <use xlink:href="#DejaVuSans-30"/>
       <use xlink:href="#DejaVuSans-2e" x="63.623047"/>
       <use xlink:href="#DejaVuSans-30" x="95.410156"/>
      </g>
     </g>
    </g>
    <g id="ytick_2">
     <g id="line2d_11">
      <g>
       <use xlink:href="#m18a654c1ec" x="63" y="187.899448" style="stroke: #000000; stroke-width: 0.8"/>
      </g>
     </g>
     <g id="text_11">
      <!-- 0.5 -->
      <g transform="translate(53.920312 200.003355) rotate(-90) scale(0.1 -0.1)">
       <use xlink:href="#DejaVuSans-30"/>
       <use xlink:href="#DejaVuSans-2e" x="63.623047"/>
       <use xlink:href="#DejaVuSans-35" x="95.410156"/>
      </g>
     </g>
    </g>
    <g id="ytick_3">
     <g id="line2d_12">
      <g>
       <use xlink:href="#m18a654c1ec" x="63" y="146.937079" style="stroke: #000000; stroke-width: 0.8"/>
      </g>
     </g>
     <g id="text_12">
      <!-- 1.0 -->
      <g transform="translate(53.920312 159.040985) rotate(-90) scale(0.1 -0.1)">
       <use xlink:href="#DejaVuSans-31"/>
       <use xlink:href="#DejaVuSans-2e" x="63.623047"/>
       <use xlink:href="#DejaVuSans-30" x="95.410156"/>
      </g>
     </g>
    </g>
    <g id="ytick_4">
     <g id="line2d_13">
      <g>
       <use xlink:href="#m18a654c1ec" x="63" y="105.974709" style="stroke: #000000; stroke-width: 0.8"/>
      </g>
     </g>
     <g id="text_13">
      <!-- 1.5 -->
      <g transform="translate(53.920312 118.078615) rotate(-90) scale(0.1 -0.1)">
       <use xlink:href="#DejaVuSans-31"/>
       <use xlink:href="#DejaVuSans-2e" x="63.623047"/>
       <use xlink:href="#DejaVuSans-35" x="95.410156"/>
      </g>
     </g>
    </g>
    <g id="ytick_5">
     <g id="line2d_14">
      <g>
       <use xlink:href="#m18a654c1ec" x="63" y="65.012339" style="stroke: #000000; stroke-width: 0.8"/>
      </g>
     </g>
     <g id="text_14">
      <!-- 2.0 -->
      <g transform="translate(53.920312 77.116245) rotate(-90) scale(0.1 -0.1)">
       <use xlink:href="#DejaVuSans-32"/>
       <use xlink:href="#DejaVuSans-2e" x="63.623047"/>
       <use xlink:href="#DejaVuSans-30" x="95.410156"/>
      </g>
     </g>
    </g>
    <g id="text_15">
     <!-- Tensão (V) -->
     <g transform="translate(40.242188 174.768281) rotate(-90) scale(0.1 -0.1)">
      <defs>
       <path id="DejaVuSans-54" d="M -19 4666 
L 3928 4666 
L 3928 4134 
L 2272 4134 
L 2272 0 
L 1638 0 
L 1638 4134 
L -19 4134 
L -19 4666 
z
" transform="scale(0.015625)"/>
       <path id="DejaVuSans-65" d="M 3597 1894 
L 3597 1613 
L 953 1613 
Q 991 1019 1311 708 
Q 1631 397 2203 397 
Q 2534 397 2845 478 
Q 3156 559 3463 722 
L 3463 178 
Q 3153 47 2828 -22 
Q 2503 -91 2169 -91 
Q 1331 -91 842 396 
Q 353 884 353 1716 
Q 353 2575 817 3079 
Q 1281 3584 2069 3584 
Q 2775 3584 3186 3129 
Q 3597 2675 3597 1894 
z
M 3022 2063 
Q 3016 2534 2758 2815 
Q 2500 3097 2075 3097 
Q 1594 3097 1305 2825 
Q 1016 2553 972 2059 
L 3022 2063 
z
" transform="scale(0.015625)"/>
       <path id="DejaVuSans-6e" d="M 3513 2113 
L 3513 0 
L 2938 0 
L 2938 2094 
Q 2938 2591 2744 2837 
Q 2550 3084 2163 3084 
Q 1697 3084 1428 2787 
Q 1159 2491 1159 1978 
L 1159 0 
L 581 0 
L 581 3500 
L 1159 3500 
L 1159 2956 
Q 1366 3272 1645 3428 
Q 1925 3584 2291 3584 
Q 2894 3584 3203 3211 
Q 3513 2838 3513 2113 
z
" transform="scale(0.015625)"/>
       <path id="DejaVuSans-73" d="M 2834 3397 
L 2834 2853 
Q 2591 2978 2328 3040 
Q 2066 3103 1784 3103 
Q 1356 3103 1142 2972 
Q 928 2841 928 2578 
Q 928 2378 1081 2264 
Q 1234 2150 1697 2047 
L 1894 2003 
Q 2506 1872 2764 1633 
Q 3022 1394 3022 966 
Q 3022 478 2636 193 
Q 2250 -91 1575 -91 
Q 1294 -91 989 -36 
Q 684 19 347 128 
L 347 722 
Q 666 556 975 473 
Q 1284 391 1588 391 
Q 1994 391 2212 530 
Q 2431 669 2431 922 
Q 2431 1156 2273 1281 
Q 2116 1406 1581 1522 
L 1381 1569 
Q 847 1681 609 1914 
Q 372 2147 372 2553 
Q 372 3047 722 3315 
Q 1072 3584 1716 3584 
Q 2034 3584 2315 3537 
Q 2597 3491 2834 3397 
z
" transform="scale(0.015625)"/>
       <path id="DejaVuSans-e3" d="M 2194 1759 
Q 1497 1759 1228 1600 
Q 959 1441 959 1056 
Q 959 750 1161 570 
Q 1363 391 1709 391 
Q 2188 391 2477 730 
Q 2766 1069 2766 1631 
L 2766 1759 
L 2194 1759 
z
M 3341 1997 
L 3341 0 
L 2766 0 
L 2766 531 
Q 2569 213 2275 61 
Q 1981 -91 1556 -91 
Q 1019 -91 701 211 
Q 384 513 384 1019 
Q 384 1609 779 1909 
Q 1175 2209 1959 2209 
L 2766 2209 
L 2766 2266 
Q 2766 2663 2505 2880 
Q 2244 3097 1772 3097 
Q 1472 3097 1187 3025 
Q 903 2953 641 2809 
L 641 3341 
Q 956 3463 1253 3523 
Q 1550 3584 1831 3584 
Q 2591 3584 2966 3190 
Q 3341 2797 3341 1997 
z
M 1844 4281 
L 1665 4453 
Q 1597 4516 1545 4545 
Q 1494 4575 1453 4575 
Q 1334 4575 1278 4461 
Q 1222 4347 1215 4091 
L 825 4091 
Q 831 4513 990 4742 
Q 1150 4972 1434 4972 
Q 1553 4972 1653 4928 
Q 1753 4884 1869 4781 
L 2047 4609 
Q 2115 4547 2167 4517 
Q 2219 4488 2259 4488 
Q 2378 4488 2434 4602 
Q 2490 4716 2497 4972 
L 2887 4972 
Q 2881 4550 2721 4320 
Q 2562 4091 2278 4091 
Q 2159 4091 2059 4134 
Q 1959 4178 1844 4281 
z
" transform="scale(0.015625)"/>
       <path id="DejaVuSans-6f" d="M 1959 3097 
Q 1497 3097 1228 2736 
Q 959 2375 959 1747 
Q 959 1119 1226 758 
Q 1494 397 1959 397 
Q 2419 397 2687 759 
Q 2956 1122 2956 1747 
Q 2956 2369 2687 2733 
Q 2419 3097 1959 3097 
z
M 1959 3584 
Q 2709 3584 3137 3096 
Q 3566 2609 3566 1747 
Q 3566 888 3137 398 
Q 2709 -91 1959 -91 
Q 1206 -91 779 398 
Q 353 888 353 1747 
Q 353 2609 779 3096 
Q 1206 3584 1959 3584 
z
" transform="scale(0.015625)"/>
       <path id="DejaVuSans-20" transform="scale(0.015625)"/>
       <path id="DejaVuSans-28" d="M 1984 4856 
Q 1566 4138 1362 3434 
Q 1159 2731 1159 2009 
Q 1159 1288 1364 580 
Q 1569 -128 1984 -844 
L 1484 -844 
Q 1016 -109 783 600 
Q 550 1309 550 2009 
Q 550 2706 781 3412 
Q 1013 4119 1484 4856 
L 1984 4856 
z
" transform="scale(0.015625)"/>
       <path id="DejaVuSans-56" d="M 1831 0 
L 50 4666 
L 709 4666 
L 2188 738 
L 3669 4666 
L 4325 4666 
L 2547 0 
L 1831 0 
z
" transform="scale(0.015625)"/>
       <path id="DejaVuSans-29" d="M 513 4856 
L 1013 4856 
Q 1481 4119 1714 3412 
Q 1947 2706 1947 2009 
Q 1947 1309 1714 600 
Q 1481 -109 1013 -844 
L 513 -844 
Q 928 -128 1133 580 
Q 1338 1288 1338 2009 
Q 1338 2731 1133 3434 
Q 928 4138 513 4856 
z
" transform="scale(0.015625)"/>
      </defs>
      <use xlink:href="#DejaVuSans-54"/>
      <use xlink:href="#DejaVuSans-65" x="44.083984"/>
      <use xlink:href="#DejaVuSans-6e" x="105.607422"/>
      <use xlink:href="#DejaVuSans-73" x="168.986328"/>
      <use xlink:href="#DejaVuSans-e3" x="221.085938"/>
      <use xlink:href="#DejaVuSans-6f" x="282.365234"/>
      <use xlink:href="#DejaVuSans-20" x="343.546875"/>
      <use xlink:href="#DejaVuSans-28" x="375.333984"/>
      <use xlink:href="#DejaVuSans-56" x="414.347656"/>
      <use xlink:href="#DejaVuSans-29" x="482.755859"/>
     </g>
    </g>
   </g>
   <g id="line2d_15">
    <path d="M 80.754545 228.861818 
L 81.109992 227.898753 
L 81.465438 225.038295 
L 81.820885 220.3552 
L 82.531777 206.029703 
L 83.24267 186.311404 
L 86.441687 86.14847 
L 87.15258 73.869643 
L 87.508026 70.276616 
L 87.863473 68.498182 
L 88.218919 68.568852 
L 88.574365 70.479579 
L 88.929812 74.178139 
L 89.640704 86.523365 
L 90.351597 104.400306 
L 91.773382 149.566264 
L 93.195168 193.061255 
L 93.906061 209.05933 
L 94.616953 219.140399 
L 94.9724 221.658663 
L 95.327846 222.412161 
L 95.683292 221.39025 
L 96.038739 218.624021 
L 96.394185 214.185406 
L 97.105078 200.770905 
L 97.815971 182.446421 
L 101.014988 90.393488 
L 101.72588 79.307896 
L 102.081327 76.12278 
L 102.436773 74.61334 
L 102.792219 74.808327 
L 103.147666 76.69635 
L 103.503112 80.226307 
L 104.214005 91.818101 
L 104.924898 108.454183 
L 106.346683 150.187588 
L 107.768468 190.079268 
L 108.479361 204.632937 
L 109.190254 213.693631 
L 109.5457 215.89122 
L 109.901147 216.460763 
L 110.256593 215.395389 
L 110.612039 212.72665 
L 110.967486 208.523625 
L 111.678378 195.967189 
L 112.389271 178.941603 
L 115.588288 94.354075 
L 116.299181 84.351303 
L 116.654627 81.532522 
L 117.010074 80.260916 
L 117.36552 80.560162 
L 117.720966 82.416957 
L 118.076413 85.781472 
L 118.787305 96.660457 
L 119.498198 112.138138 
L 120.919984 150.69425 
L 122.341769 187.275402 
L 123.052662 200.511132 
L 123.763554 208.648527 
L 124.119001 210.560067 
L 124.474447 210.969895 
L 124.829894 209.874389 
L 125.18534 207.30529 
L 125.540786 203.328816 
L 126.251679 191.580093 
L 127.318018 166.791894 
L 129.450696 111.73401 
L 130.161589 98.048201 
L 130.872482 89.027688 
L 131.227928 86.537641 
L 131.583374 85.475917 
L 131.938821 85.861742 
L 132.294267 87.680271 
L 132.649713 90.883075 
L 133.360606 101.08824 
L 134.071499 115.484835 
L 135.493284 151.100399 
L 136.559623 177.175812 
L 137.270516 191.189871 
L 137.981409 200.96807 
L 138.336855 203.976241 
L 138.692301 205.632927 
L 139.047748 205.904625 
L 139.403194 204.79049 
L 139.75864 202.322222 
L 140.114087 198.563195 
L 140.82498 187.574338 
L 141.891319 164.581841 
L 144.023997 113.957151 
L 144.734889 101.4928 
L 145.445782 93.362989 
L 145.801229 91.167682 
L 146.156675 90.290792 
L 146.512121 90.747644 
L 146.867568 92.522179 
L 147.223014 95.567461 
L 147.933907 105.136163 
L 148.644799 118.524129 
L 150.066585 151.418681 
L 151.132924 175.34695 
L 151.843817 188.129617 
L 152.554709 196.971441 
L 152.910156 199.649932 
L 153.265602 201.079852 
L 153.621048 201.232612 
L 153.976495 200.109726 
L 154.331941 197.742663 
L 155.042834 189.545787 
L 155.753726 177.443424 
L 156.820066 154.573434 
L 158.597297 116.052671 
L 159.30819 104.703827 
L 160.019083 97.381377 
L 160.374529 95.450096 
L 160.729975 94.735613 
L 161.085422 95.249844 
L 161.440868 96.975802 
L 161.796314 99.868116 
L 162.507207 108.836087 
L 163.2181 121.283303 
L 164.995332 159.358333 
L 166.061671 179.842128 
L 166.772563 189.779325 
L 167.12801 193.262878 
L 167.483456 195.644632 
L 167.838903 196.873058 
L 168.194349 196.923917 
L 168.549795 195.800721 
L 168.905242 193.534538 
L 169.616134 185.8296 
L 170.327027 174.561577 
L 171.393366 153.402277 
L 173.170598 118.026616 
L 173.881491 107.696298 
L 174.592383 101.105371 
L 174.94783 99.41038 
L 175.303276 98.838243 
L 175.658722 99.397907 
L 176.014169 101.071708 
L 176.369615 103.815888 
L 177.080508 112.217256 
L 177.7914 123.787285 
L 180.990418 182.603552 
L 181.70131 189.822266 
L 182.056757 191.937117 
L 182.412203 192.986772 
L 182.767649 192.950836 
L 183.123096 191.834493 
L 183.478542 189.668275 
L 184.189435 182.429615 
L 184.900328 171.941007 
L 186.322113 145.428891 
L 187.743898 119.884884 
L 188.454791 110.484343 
L 189.165684 104.555948 
L 189.52113 103.072213 
L 189.876577 102.624495 
L 190.232023 103.219168 
L 190.587469 104.838103 
L 190.942916 107.439188 
L 191.653808 115.306506 
L 192.364701 126.058846 
L 195.563718 180.113388 
L 196.274611 186.630838 
L 196.630057 188.505795 
L 196.985504 189.397093 
L 197.34095 189.287731 
L 197.696396 188.184276 
L 198.051843 186.116614 
L 198.762735 179.319501 
L 199.473628 169.558763 
L 200.895414 145.061293 
L 202.317199 121.633216 
L 203.028092 113.081246 
L 203.738984 107.752639 
L 204.094431 106.457576 
L 204.449877 106.118278 
L 204.805324 106.738893 
L 205.16077 108.301011 
L 205.516216 110.764186 
L 206.227109 118.12846 
L 206.938002 128.118781 
L 210.137019 177.790027 
L 210.847912 183.671087 
L 211.203358 185.330591 
L 211.558804 186.08186 
L 211.914251 185.910881 
L 212.269697 184.825355 
L 212.625143 182.854427 
L 213.336036 176.475079 
L 214.046929 167.393856 
L 215.468714 144.761233 
L 216.8905 123.277177 
L 217.601392 115.499491 
L 218.312285 110.713628 
L 218.667731 109.586879 
L 219.023178 109.341736 
L 219.378624 109.980432 
L 219.73407 111.484437 
L 220.089517 113.814975 
L 220.80041 120.705707 
L 221.866749 135.252443 
L 223.999427 167.581699 
L 224.710319 175.622936 
L 225.421212 180.926693 
L 225.776658 182.392847 
L 226.132105 183.020527 
L 226.487551 182.798343 
L 226.842998 181.734908 
L 227.198444 179.858558 
L 227.909337 173.874145 
L 228.620229 165.427097 
L 230.042015 144.520388 
L 231.108354 129.207217 
L 231.819247 120.973942 
L 232.530139 115.225938 
L 232.885586 113.455839 
L 233.241032 112.47906 
L 233.596478 112.31537 
L 233.951925 112.965364 
L 234.307371 114.410526 
L 234.662817 116.613741 
L 235.37371 123.058964 
L 236.440049 136.552075 
L 238.572727 166.278499 
L 239.28362 173.602186 
L 239.994513 178.382437 
L 240.349959 179.675226 
L 240.705405 180.194051 
L 241.060852 179.929821 
L 241.416298 178.891872 
L 241.771744 177.107669 
L 242.482637 171.496315 
L 243.19353 163.64095 
L 244.615315 144.331318 
L 245.681654 130.278946 
L 246.392547 122.768997 
L 247.10344 117.571262 
L 247.458886 115.99502 
L 247.814333 115.151696 
L 248.169779 115.058164 
L 248.525225 115.713627 
L 248.880672 117.099697 
L 249.591564 121.905604 
L 250.302457 129.005956 
L 251.368796 142.429316 
L 253.146028 165.050054 
L 253.856921 171.718424 
L 254.567813 176.024141 
L 254.92326 177.161619 
L 255.278706 177.584783 
L 255.634152 177.286548 
L 255.989599 176.276802 
L 256.345045 174.582099 
L 257.055938 169.322878 
L 257.76683 162.019387 
L 259.188616 144.187382 
L 260.254955 131.293961 
L 260.965848 124.445412 
L 261.67674 119.74757 
L 262.032187 118.345822 
L 262.387633 117.62109 
L 262.743079 117.587688 
L 263.098526 118.243638 
L 263.453972 119.570782 
L 264.164865 124.088426 
L 264.875758 130.699389 
L 265.942097 143.118802 
L 267.719328 163.892831 
L 268.430221 169.962848 
L 269.141114 173.838592 
L 269.49656 174.837067 
L 269.852007 175.17637 
L 270.207453 174.851168 
L 270.562899 173.871752 
L 270.918346 172.263738 
L 271.629238 167.336658 
L 272.340131 160.547764 
L 275.539148 126.010527 
L 276.250041 121.76666 
L 276.605487 120.521869 
L 276.960934 119.902368 
L 277.31638 119.920204 
L 277.671826 120.572412 
L 278.027273 121.841141 
L 278.738165 126.085541 
L 279.449058 132.239321 
L 280.870844 147.801747 
L 282.292629 162.803378 
L 283.003522 168.327171 
L 283.714414 171.813484 
L 284.069861 172.687674 
L 284.425307 172.953664 
L 284.780753 172.607637 
L 285.1362 171.660166 
L 285.491646 170.135903 
L 286.202539 165.521898 
L 286.913432 159.212705 
L 290.112449 127.471276 
L 290.823342 123.639542 
L 291.178788 122.535833 
L 291.534234 122.009555 
L 291.889681 122.070758 
L 292.245127 122.715658 
L 292.600573 123.926779 
L 293.311466 127.912412 
L 294.022359 133.639235 
L 295.444144 148.019218 
L 296.86593 161.778338 
L 297.576822 166.803607 
L 298.287715 169.937357 
L 298.643161 170.70054 
L 298.998608 170.902631 
L 299.354054 170.541125 
L 299.7095 169.626765 
L 300.064947 168.183232 
L 300.775839 163.864136 
L 301.486732 158.001994 
L 304.685749 128.834205 
L 305.396642 125.376486 
L 305.752088 124.399492 
L 306.107535 123.955658 
L 306.462981 124.053275 
L 306.818428 124.687888 
L 307.173874 125.842447 
L 307.884767 129.583237 
L 308.595659 134.91146 
L 310.017445 148.196909 
L 311.43923 160.814454 
L 312.150123 165.384834 
L 312.861016 168.199544 
L 313.216462 168.863691 
L 313.571908 169.010275 
L 313.927355 168.637925 
L 314.282801 167.757456 
L 314.638247 166.391576 
L 315.34914 162.350107 
L 316.415479 153.81349 
L 318.548157 134.830193 
L 319.25905 130.105488 
L 319.969943 126.987066 
L 320.325389 126.123794 
L 320.680835 125.752734 
L 321.036282 125.880634 
L 321.391728 126.502496 
L 321.747174 127.601742 
L 322.458067 131.111056 
L 323.16896 136.067266 
L 324.590745 148.339715 
L 325.657084 157.332594 
L 326.367977 162.169648 
L 327.07887 165.54854 
L 327.434316 166.590115 
L 327.789762 167.16601 
L 328.145209 167.264564 
L 328.500655 166.885369 
L 328.856102 166.03924 
L 329.566994 163.043486 
L 330.277887 158.57061 
L 331.344226 150.056409 
L 333.121458 135.594124 
L 333.832351 131.290945 
L 334.543243 128.480211 
L 334.89869 127.718912 
L 335.254136 127.41196 
L 335.609582 127.564747 
L 335.965029 128.171848 
L 336.320475 129.217192 
L 337.031368 132.507839 
L 337.74226 137.116956 
L 339.164046 148.452014 
L 340.230385 156.704555 
L 340.941278 161.116723 
L 341.65217 164.172245 
L 342.007617 165.099829 
L 342.363063 165.597186 
L 342.718509 165.654356 
L 343.073956 165.271756 
L 343.429402 164.460127 
L 344.140295 161.642385 
L 344.851188 157.476674 
L 345.917527 149.597945 
L 347.694758 136.314266 
L 348.405651 132.39606 
L 349.116544 129.864238 
L 349.47199 129.194297 
L 349.827437 128.943692 
L 350.182883 129.11663 
L 350.538329 129.707359 
L 350.893776 130.700337 
L 351.604668 133.784576 
L 352.315561 138.069945 
L 354.092793 151.192004 
L 355.159132 158.25877 
L 355.870025 161.690583 
L 356.580917 163.720091 
L 356.936364 164.147649 
L 357.29181 164.169339 
L 357.647256 163.786273 
L 358.002703 163.009064 
L 358.713595 160.360235 
L 359.424488 156.481579 
L 360.490827 149.192032 
L 362.268059 136.992685 
L 362.978952 133.425993 
L 363.689844 131.146899 
L 364.045291 130.55873 
L 364.400737 130.357528 
L 364.756183 130.546471 
L 365.11163 131.119564 
L 365.467076 132.061813 
L 366.177969 134.95135 
L 366.888862 138.934835 
L 370.087879 159.215279 
L 370.798771 161.710234 
L 371.154218 162.442906 
L 371.509664 162.808523 
L 371.865111 162.799967 
L 372.220557 162.418933 
L 372.576003 161.675858 
L 373.286896 159.187152 
L 373.997789 155.576666 
L 375.419574 146.441638 
L 376.84136 137.6314 
L 377.552252 134.385603 
L 378.263145 132.335413 
L 378.618591 131.820363 
L 378.974038 131.66236 
L 379.329484 131.863688 
L 379.68493 132.418183 
L 380.040377 133.311413 
L 380.751269 136.017419 
L 381.462162 139.719485 
L 384.661179 158.358394 
L 385.372072 160.611138 
L 385.727518 161.26084 
L 386.082965 161.571578 
L 386.438411 161.537409 
L 386.793857 161.160513 
L 387.149304 160.451112 
L 387.860197 158.114055 
L 388.571089 154.754015 
L 389.992875 146.312989 
L 391.41466 138.232375 
L 392.125553 135.279454 
L 392.836446 133.436504 
L 393.191892 132.986765 
L 393.547338 132.866422 
L 393.902785 133.076984 
L 394.258231 133.612185 
L 394.613677 134.458158 
L 395.32457 136.991273 
L 396.035463 140.431071 
L 399.23448 157.558874 
L 399.945373 159.591805 
L 400.300819 160.166983 
L 400.656265 160.42918 
L 401.011712 160.373493 
L 401.367158 160.002497 
L 401.722604 159.326166 
L 402.433497 157.132607 
L 403.14439 154.006384 
L 404.566175 146.207772 
L 405.987961 138.797516 
L 406.698853 136.111841 
L 407.409746 134.456431 
L 407.765192 134.064965 
L 408.120639 133.977343 
L 408.476085 134.194407 
L 408.831532 134.709843 
L 409.542424 136.576002 
L 410.253317 139.392865 
L 411.319656 144.792303 
L 413.096888 154.037059 
L 413.807781 156.813101 
L 414.518673 158.646618 
L 414.87412 159.154908 
L 415.229566 159.374254 
L 415.585012 159.300658 
L 415.940459 158.93702 
L 416.295905 158.293037 
L 417.006798 156.235149 
L 417.71769 153.327152 
L 419.139476 146.123104 
L 420.561261 139.328668 
L 421.272154 136.886794 
L 421.983047 135.40102 
L 422.338493 135.061485 
L 422.693939 135.002185 
L 423.049386 135.223391 
L 423.404832 135.718789 
L 424.115725 137.475152 
L 424.826618 140.099298 
L 425.892957 145.096581 
L 427.670188 153.589247 
L 428.381081 156.117663 
L 429.091974 157.770338 
L 429.44742 158.218649 
L 429.802867 158.40024 
L 430.158313 158.311914 
L 430.513759 157.956823 
L 430.869206 157.344372 
L 431.580098 155.414652 
L 432.290991 152.710266 
L 433.712776 146.056413 
L 434.779115 141.209944 
L 435.490008 138.617755 
L 435.845455 137.608098 
L 435.845455 137.608098 
" clip-path="url(#p9bbb1aa239)" style="fill: none; stroke: #0000ff; stroke-width: 1.5; stroke-linecap: square"/>
   </g>
   <g id="line2d_16">
    <path d="M 80.754545 228.861818 
L 81.109992 183.798072 
L 81.465438 152.888197 
L 81.820885 132.061511 
L 82.176331 118.394927 
L 82.531777 109.79099 
L 82.887224 104.746125 
L 83.24267 102.183851 
L 83.598116 101.334729 
L 83.953563 101.649975 
L 84.309009 102.739298 
L 85.019902 106.21567 
L 87.863473 122.219282 
L 88.929812 126.891957 
L 89.996151 130.730824 
L 91.06249 133.852874 
L 92.128829 136.380313 
L 93.195168 138.422081 
L 94.261507 140.069904 
L 95.327846 141.399194 
L 96.749631 142.780401 
L 98.171417 143.817181 
L 99.593202 144.595379 
L 101.370434 145.301135 
L 103.503112 145.873297 
L 105.991237 146.29323 
L 109.190254 146.599473 
L 113.811057 146.804209 
L 121.986323 146.911557 
L 149.355692 146.936977 
L 435.845455 146.937079 
L 435.845455 146.937079 
" clip-path="url(#p9bbb1aa239)" style="fill: none; stroke: #ff0000; stroke-width: 1.5; stroke-linecap: square"/>
   </g>
   <g id="patch_3">
    <path d="M 63 236.88 
L 63 60.48 
" style="fill: none; stroke: #000000; stroke-width: 0.8; stroke-linejoin: miter; stroke-linecap: square"/>
   </g>
   <g id="patch_4">
    <path d="M 453.6 236.88 
L 453.6 60.48 
" style="fill: none; stroke: #000000; stroke-width: 0.8; stroke-linejoin: miter; stroke-linecap: square"/>
   </g>
   <g id="patch_5">
    <path d="M 63 236.88 
L 453.6 236.88 
" style="fill: none; stroke: #000000; stroke-width: 0.8; stroke-linejoin: miter; stroke-linecap: square"/>
   </g>
   <g id="patch_6">
    <path d="M 63 60.48 
L 453.6 60.48 
" style="fill: none; stroke: #000000; stroke-width: 0.8; stroke-linejoin: miter; stroke-linecap: square"/>
   </g>
   <g id="legend_1">
    <g id="patch_7">
     <path d="M 327.673438 97.83625 
L 446.6 97.83625 
Q 448.6 97.83625 448.6 95.83625 
L 448.6 67.48 
Q 448.6 65.48 446.6 65.48 
L 327.673438 65.48 
Q 325.673438 65.48 325.673438 67.48 
L 325.673438 95.83625 
Q 325.673438 97.83625 327.673438 97.83625 
z
" style="fill: #ffffff; opacity: 0.8; stroke: #cccccc; stroke-linejoin: miter"/>
    </g>
    <g id="line2d_17">
     <path d="M 329.673438 73.578438 
L 339.673438 73.578438 
L 349.673438 73.578438 
" style="fill: none; stroke: #0000ff; stroke-width: 1.5; stroke-linecap: square"/>
    </g>
    <g id="text_16">
     <!-- SubAmortecido -->
     <g transform="translate(357.673438 77.078438) scale(0.1 -0.1)">
      <defs>
       <path id="DejaVuSans-53" d="M 3425 4513 
L 3425 3897 
Q 3066 4069 2747 4153 
Q 2428 4238 2131 4238 
Q 1616 4238 1336 4038 
Q 1056 3838 1056 3469 
Q 1056 3159 1242 3001 
Q 1428 2844 1947 2747 
L 2328 2669 
Q 3034 2534 3370 2195 
Q 3706 1856 3706 1288 
Q 3706 609 3251 259 
Q 2797 -91 1919 -91 
Q 1588 -91 1214 -16 
Q 841 59 441 206 
L 441 856 
Q 825 641 1194 531 
Q 1563 422 1919 422 
Q 2459 422 2753 634 
Q 3047 847 3047 1241 
Q 3047 1584 2836 1778 
Q 2625 1972 2144 2069 
L 1759 2144 
Q 1053 2284 737 2584 
Q 422 2884 422 3419 
Q 422 4038 858 4394 
Q 1294 4750 2059 4750 
Q 2388 4750 2728 4690 
Q 3069 4631 3425 4513 
z
" transform="scale(0.015625)"/>
       <path id="DejaVuSans-75" d="M 544 1381 
L 544 3500 
L 1119 3500 
L 1119 1403 
Q 1119 906 1312 657 
Q 1506 409 1894 409 
Q 2359 409 2629 706 
Q 2900 1003 2900 1516 
L 2900 3500 
L 3475 3500 
L 3475 0 
L 2900 0 
L 2900 538 
Q 2691 219 2414 64 
Q 2138 -91 1772 -91 
Q 1169 -91 856 284 
Q 544 659 544 1381 
z
M 1991 3584 
L 1991 3584 
z
" transform="scale(0.015625)"/>
       <path id="DejaVuSans-62" d="M 3116 1747 
Q 3116 2381 2855 2742 
Q 2594 3103 2138 3103 
Q 1681 3103 1420 2742 
Q 1159 2381 1159 1747 
Q 1159 1113 1420 752 
Q 1681 391 2138 391 
Q 2594 391 2855 752 
Q 3116 1113 3116 1747 
z
M 1159 2969 
Q 1341 3281 1617 3432 
Q 1894 3584 2278 3584 
Q 2916 3584 3314 3078 
Q 3713 2572 3713 1747 
Q 3713 922 3314 415 
Q 2916 -91 2278 -91 
Q 1894 -91 1617 61 
Q 1341 213 1159 525 
L 1159 0 
L 581 0 
L 581 4863 
L 1159 4863 
L 1159 2969 
z
" transform="scale(0.015625)"/>
       <path id="DejaVuSans-41" d="M 2188 4044 
L 1331 1722 
L 3047 1722 
L 2188 4044 
z
M 1831 4666 
L 2547 4666 
L 4325 0 
L 3669 0 
L 3244 1197 
L 1141 1197 
L 716 0 
L 50 0 
L 1831 4666 
z
" transform="scale(0.015625)"/>
       <path id="DejaVuSans-6d" d="M 3328 2828 
Q 3544 3216 3844 3400 
Q 4144 3584 4550 3584 
Q 5097 3584 5394 3201 
Q 5691 2819 5691 2113 
L 5691 0 
L 5113 0 
L 5113 2094 
Q 5113 2597 4934 2840 
Q 4756 3084 4391 3084 
Q 3944 3084 3684 2787 
Q 3425 2491 3425 1978 
L 3425 0 
L 2847 0 
L 2847 2094 
Q 2847 2600 2669 2842 
Q 2491 3084 2119 3084 
Q 1678 3084 1418 2786 
Q 1159 2488 1159 1978 
L 1159 0 
L 581 0 
L 581 3500 
L 1159 3500 
L 1159 2956 
Q 1356 3278 1631 3431 
Q 1906 3584 2284 3584 
Q 2666 3584 2933 3390 
Q 3200 3197 3328 2828 
z
" transform="scale(0.015625)"/>
       <path id="DejaVuSans-72" d="M 2631 2963 
Q 2534 3019 2420 3045 
Q 2306 3072 2169 3072 
Q 1681 3072 1420 2755 
Q 1159 2438 1159 1844 
L 1159 0 
L 581 0 
L 581 3500 
L 1159 3500 
L 1159 2956 
Q 1341 3275 1631 3429 
Q 1922 3584 2338 3584 
Q 2397 3584 2469 3576 
Q 2541 3569 2628 3553 
L 2631 2963 
z
" transform="scale(0.015625)"/>
       <path id="DejaVuSans-74" d="M 1172 4494 
L 1172 3500 
L 2356 3500 
L 2356 3053 
L 1172 3053 
L 1172 1153 
Q 1172 725 1289 603 
Q 1406 481 1766 481 
L 2356 481 
L 2356 0 
L 1766 0 
Q 1100 0 847 248 
Q 594 497 594 1153 
L 594 3053 
L 172 3053 
L 172 3500 
L 594 3500 
L 594 4494 
L 1172 4494 
z
" transform="scale(0.015625)"/>
       <path id="DejaVuSans-63" d="M 3122 3366 
L 3122 2828 
Q 2878 2963 2633 3030 
Q 2388 3097 2138 3097 
Q 1578 3097 1268 2742 
Q 959 2388 959 1747 
Q 959 1106 1268 751 
Q 1578 397 2138 397 
Q 2388 397 2633 464 
Q 2878 531 3122 666 
L 3122 134 
Q 2881 22 2623 -34 
Q 2366 -91 2075 -91 
Q 1284 -91 818 406 
Q 353 903 353 1747 
Q 353 2603 823 3093 
Q 1294 3584 2113 3584 
Q 2378 3584 2631 3529 
Q 2884 3475 3122 3366 
z
" transform="scale(0.015625)"/>
       <path id="DejaVuSans-69" d="M 603 3500 
L 1178 3500 
L 1178 0 
L 603 0 
L 603 3500 
z
M 603 4863 
L 1178 4863 
L 1178 4134 
L 603 4134 
L 603 4863 
z
" transform="scale(0.015625)"/>
       <path id="DejaVuSans-64" d="M 2906 2969 
L 2906 4863 
L 3481 4863 
L 3481 0 
L 2906 0 
L 2906 525 
Q 2725 213 2448 61 
Q 2172 -91 1784 -91 
Q 1150 -91 751 415 
Q 353 922 353 1747 
Q 353 2572 751 3078 
Q 1150 3584 1784 3584 
Q 2172 3584 2448 3432 
Q 2725 3281 2906 2969 
z
M 947 1747 
Q 947 1113 1208 752 
Q 1469 391 1925 391 
Q 2381 391 2643 752 
Q 2906 1113 2906 1747 
Q 2906 2381 2643 2742 
Q 2381 3103 1925 3103 
Q 1469 3103 1208 2742 
Q 947 2381 947 1747 
z
" transform="scale(0.015625)"/>
      </defs>
      <use xlink:href="#DejaVuSans-53"/>
      <use xlink:href="#DejaVuSans-75" x="63.476562"/>
      <use xlink:href="#DejaVuSans-62" x="126.855469"/>
      <use xlink:href="#DejaVuSans-41" x="190.332031"/>
      <use xlink:href="#DejaVuSans-6d" x="258.740234"/>
      <use xlink:href="#DejaVuSans-6f" x="356.152344"/>
      <use xlink:href="#DejaVuSans-72" x="417.333984"/>
      <use xlink:href="#DejaVuSans-74" x="458.447266"/>
      <use xlink:href="#DejaVuSans-65" x="497.65625"/>
      <use xlink:href="#DejaVuSans-63" x="559.179688"/>
      <use xlink:href="#DejaVuSans-69" x="614.160156"/>
      <use xlink:href="#DejaVuSans-64" x="641.943359"/>
      <use xlink:href="#DejaVuSans-6f" x="705.419922"/>
     </g>
    </g>
    <g id="line2d_18">
     <path d="M 329.673438 88.256563 
L 339.673438 88.256563 
L 349.673438 88.256563 
" style="fill: none; stroke: #ff0000; stroke-width: 1.5; stroke-linecap: square"/>
    </g>
    <g id="text_17">
     <!-- SuperAmortecido -->
     <g transform="translate(357.673438 91.756563) scale(0.1 -0.1)">
      <defs>
       <path id="DejaVuSans-70" d="M 1159 525 
L 1159 -1331 
L 581 -1331 
L 581 3500 
L 1159 3500 
L 1159 2969 
Q 1341 3281 1617 3432 
Q 1894 3584 2278 3584 
Q 2916 3584 3314 3078 
Q 3713 2572 3713 1747 
Q 3713 922 3314 415 
Q 2916 -91 2278 -91 
Q 1894 -91 1617 61 
Q 1341 213 1159 525 
z
M 3116 1747 
Q 3116 2381 2855 2742 
Q 2594 3103 2138 3103 
Q 1681 3103 1420 2742 
Q 1159 2381 1159 1747 
Q 1159 1113 1420 752 
Q 1681 391 2138 391 
Q 2594 391 2855 752 
Q 3116 1113 3116 1747 
z
" transform="scale(0.015625)"/>
      </defs>
      <use xlink:href="#DejaVuSans-53"/>
      <use xlink:href="#DejaVuSans-75" x="63.476562"/>
      <use xlink:href="#DejaVuSans-70" x="126.855469"/>
      <use xlink:href="#DejaVuSans-65" x="190.332031"/>
      <use xlink:href="#DejaVuSans-72" x="251.855469"/>
      <use xlink:href="#DejaVuSans-41" x="292.96875"/>
      <use xlink:href="#DejaVuSans-6d" x="361.376953"/>
      <use xlink:href="#DejaVuSans-6f" x="458.789062"/>
      <use xlink:href="#DejaVuSans-72" x="519.970703"/>
      <use xlink:href="#DejaVuSans-74" x="561.083984"/>
      <use xlink:href="#DejaVuSans-65" x="600.292969"/>
      <use xlink:href="#DejaVuSans-63" x="661.816406"/>
      <use xlink:href="#DejaVuSans-69" x="716.796875"/>
      <use xlink:href="#DejaVuSans-64" x="744.580078"/>
      <use xlink:href="#DejaVuSans-6f" x="808.056641"/>
     </g>
    </g>
   </g>
  </g>
  <g id="axes_2">
   <g id="patch_8">
    <path d="M 63 448.56 
L 453.6 448.56 
L 453.6 272.16 
L 63 272.16 
z
" style="fill: #ffffff"/>
   </g>
   <g id="matplotlib.axis_3">
    <g id="xtick_10">
     <g id="line2d_19">
      <g>
       <use xlink:href="#m068a3f93ec" x="80.754545" y="448.56" style="stroke: #000000; stroke-width: 0.8"/>
      </g>
     </g>
     <g id="text_18">
      <!-- 0.0 -->
      <g transform="translate(72.802983 463.158437) scale(0.1 -0.1)">
       <use xlink:href="#DejaVuSans-30"/>
       <use xlink:href="#DejaVuSans-2e" x="63.623047"/>
       <use xlink:href="#DejaVuSans-30" x="95.410156"/>
      </g>
     </g>
    </g>
    <g id="xtick_11">
     <g id="line2d_20">
      <g>
       <use xlink:href="#m068a3f93ec" x="125.140909" y="448.56" style="stroke: #000000; stroke-width: 0.8"/>
      </g>
     </g>
     <g id="text_19">
      <!-- 2.5 -->
      <g transform="translate(117.189347 463.158437) scale(0.1 -0.1)">
       <use xlink:href="#DejaVuSans-32"/>
       <use xlink:href="#DejaVuSans-2e" x="63.623047"/>
       <use xlink:href="#DejaVuSans-35" x="95.410156"/>
      </g>
     </g>
    </g>
    <g id="xtick_12">
     <g id="line2d_21">
      <g>
       <use xlink:href="#m068a3f93ec" x="169.527273" y="448.56" style="stroke: #000000; stroke-width: 0.8"/>
      </g>
     </g>
     <g id="text_20">
      <!-- 5.0 -->
      <g transform="translate(161.57571 463.158437) scale(0.1 -0.1)">
       <use xlink:href="#DejaVuSans-35"/>
       <use xlink:href="#DejaVuSans-2e" x="63.623047"/>
       <use xlink:href="#DejaVuSans-30" x="95.410156"/>
      </g>
     </g>
    </g>
    <g id="xtick_13">
     <g id="line2d_22">
      <g>
       <use xlink:href="#m068a3f93ec" x="213.913636" y="448.56" style="stroke: #000000; stroke-width: 0.8"/>
      </g>
     </g>
     <g id="text_21">
      <!-- 7.5 -->
      <g transform="translate(205.962074 463.158437) scale(0.1 -0.1)">
       <defs>
        <path id="DejaVuSans-37" d="M 525 4666 
L 3525 4666 
L 3525 4397 
L 1831 0 
L 1172 0 
L 2766 4134 
L 525 4134 
L 525 4666 
z
" transform="scale(0.015625)"/>
       </defs>
       <use xlink:href="#DejaVuSans-37"/>
       <use xlink:href="#DejaVuSans-2e" x="63.623047"/>
       <use xlink:href="#DejaVuSans-35" x="95.410156"/>
      </g>
     </g>
    </g>
    <g id="xtick_14">
     <g id="line2d_23">
      <g>
       <use xlink:href="#m068a3f93ec" x="258.3" y="448.56" style="stroke: #000000; stroke-width: 0.8"/>
      </g>
     </g>
     <g id="text_22">
      <!-- 10.0 -->
      <g transform="translate(247.167188 463.158437) scale(0.1 -0.1)">
       <use xlink:href="#DejaVuSans-31"/>
       <use xlink:href="#DejaVuSans-30" x="63.623047"/>
       <use xlink:href="#DejaVuSans-2e" x="127.246094"/>
       <use xlink:href="#DejaVuSans-30" x="159.033203"/>
      </g>
     </g>
    </g>
    <g id="xtick_15">
     <g id="line2d_24">
      <g>
       <use xlink:href="#m068a3f93ec" x="302.686364" y="448.56" style="stroke: #000000; stroke-width: 0.8"/>
      </g>
     </g>
     <g id="text_23">
      <!-- 12.5 -->
      <g transform="translate(291.553551 463.158437) scale(0.1 -0.1)">
       <use xlink:href="#DejaVuSans-31"/>
       <use xlink:href="#DejaVuSans-32" x="63.623047"/>
       <use xlink:href="#DejaVuSans-2e" x="127.246094"/>
       <use xlink:href="#DejaVuSans-35" x="159.033203"/>
      </g>
     </g>
    </g>
    <g id="xtick_16">
     <g id="line2d_25">
      <g>
       <use xlink:href="#m068a3f93ec" x="347.072727" y="448.56" style="stroke: #000000; stroke-width: 0.8"/>
      </g>
     </g>
     <g id="text_24">
      <!-- 15.0 -->
      <g transform="translate(335.939915 463.158437) scale(0.1 -0.1)">
       <use xlink:href="#DejaVuSans-31"/>
       <use xlink:href="#DejaVuSans-35" x="63.623047"/>
       <use xlink:href="#DejaVuSans-2e" x="127.246094"/>
       <use xlink:href="#DejaVuSans-30" x="159.033203"/>
      </g>
     </g>
    </g>
    <g id="xtick_17">
     <g id="line2d_26">
      <g>
       <use xlink:href="#m068a3f93ec" x="391.459091" y="448.56" style="stroke: #000000; stroke-width: 0.8"/>
      </g>
     </g>
     <g id="text_25">
      <!-- 17.5 -->
      <g transform="translate(380.326278 463.158437) scale(0.1 -0.1)">
       <use xlink:href="#DejaVuSans-31"/>
       <use xlink:href="#DejaVuSans-37" x="63.623047"/>
       <use xlink:href="#DejaVuSans-2e" x="127.246094"/>
       <use xlink:href="#DejaVuSans-35" x="159.033203"/>
      </g>
     </g>
    </g>
    <g id="xtick_18">
     <g id="line2d_27">
      <g>
       <use xlink:href="#m068a3f93ec" x="435.845455" y="448.56" style="stroke: #000000; stroke-width: 0.8"/>
      </g>
     </g>
     <g id="text_26">
      <!-- 20.0 -->
      <g transform="translate(424.712642 463.158437) scale(0.1 -0.1)">
       <use xlink:href="#DejaVuSans-32"/>
       <use xlink:href="#DejaVuSans-30" x="63.623047"/>
       <use xlink:href="#DejaVuSans-2e" x="127.246094"/>
       <use xlink:href="#DejaVuSans-30" x="159.033203"/>
      </g>
     </g>
    </g>
    <g id="text_27">
     <!-- Tempo (s) -->
     <g transform="translate(233.820312 476.836563) scale(0.1 -0.1)">
      <use xlink:href="#DejaVuSans-54"/>
      <use xlink:href="#DejaVuSans-65" x="44.083984"/>
      <use xlink:href="#DejaVuSans-6d" x="105.607422"/>
      <use xlink:href="#DejaVuSans-70" x="203.019531"/>
      <use xlink:href="#DejaVuSans-6f" x="266.496094"/>
      <use xlink:href="#DejaVuSans-20" x="327.677734"/>
      <use xlink:href="#DejaVuSans-28" x="359.464844"/>
      <use xlink:href="#DejaVuSans-73" x="398.478516"/>
      <use xlink:href="#DejaVuSans-29" x="450.578125"/>
     </g>
    </g>
   </g>
   <g id="matplotlib.axis_4">
    <g id="ytick_6">
     <g id="line2d_28">
      <g>
       <use xlink:href="#m18a654c1ec" x="63" y="440.541818" style="stroke: #000000; stroke-width: 0.8"/>
      </g>
     </g>
     <g id="text_28">
      <!-- 0.0 -->
      <g transform="translate(53.920312 452.645724) rotate(-90) scale(0.1 -0.1)">
       <use xlink:href="#DejaVuSans-30"/>
       <use xlink:href="#DejaVuSans-2e" x="63.623047"/>
       <use xlink:href="#DejaVuSans-30" x="95.410156"/>
      </g>
     </g>
    </g>
    <g id="ytick_7">
     <g id="line2d_29">
      <g>
       <use xlink:href="#m18a654c1ec" x="63" y="412.292244" style="stroke: #000000; stroke-width: 0.8"/>
      </g>
     </g>
     <g id="text_29">
      <!-- 0.2 -->
      <g transform="translate(53.920312 424.39615) rotate(-90) scale(0.1 -0.1)">
       <use xlink:href="#DejaVuSans-30"/>
       <use xlink:href="#DejaVuSans-2e" x="63.623047"/>
       <use xlink:href="#DejaVuSans-32" x="95.410156"/>
      </g>
     </g>
    </g>
    <g id="ytick_8">
     <g id="line2d_30">
      <g>
       <use xlink:href="#m18a654c1ec" x="63" y="384.04267" style="stroke: #000000; stroke-width: 0.8"/>
      </g>
     </g>
     <g id="text_30">
      <!-- 0.4 -->
      <g transform="translate(53.920312 396.146576) rotate(-90) scale(0.1 -0.1)">
       <use xlink:href="#DejaVuSans-30"/>
       <use xlink:href="#DejaVuSans-2e" x="63.623047"/>
       <use xlink:href="#DejaVuSans-34" x="95.410156"/>
      </g>
     </g>
    </g>
    <g id="ytick_9">
     <g id="line2d_31">
      <g>
       <use xlink:href="#m18a654c1ec" x="63" y="355.793095" style="stroke: #000000; stroke-width: 0.8"/>
      </g>
     </g>
     <g id="text_31">
      <!-- 0.6 -->
      <g transform="translate(53.920312 367.897001) rotate(-90) scale(0.1 -0.1)">
       <defs>
        <path id="DejaVuSans-36" d="M 2113 2584 
Q 1688 2584 1439 2293 
Q 1191 2003 1191 1497 
Q 1191 994 1439 701 
Q 1688 409 2113 409 
Q 2538 409 2786 701 
Q 3034 994 3034 1497 
Q 3034 2003 2786 2293 
Q 2538 2584 2113 2584 
z
M 3366 4563 
L 3366 3988 
Q 3128 4100 2886 4159 
Q 2644 4219 2406 4219 
Q 1781 4219 1451 3797 
Q 1122 3375 1075 2522 
Q 1259 2794 1537 2939 
Q 1816 3084 2150 3084 
Q 2853 3084 3261 2657 
Q 3669 2231 3669 1497 
Q 3669 778 3244 343 
Q 2819 -91 2113 -91 
Q 1303 -91 875 529 
Q 447 1150 447 2328 
Q 447 3434 972 4092 
Q 1497 4750 2381 4750 
Q 2619 4750 2861 4703 
Q 3103 4656 3366 4563 
z
" transform="scale(0.015625)"/>
       </defs>
       <use xlink:href="#DejaVuSans-30"/>
       <use xlink:href="#DejaVuSans-2e" x="63.623047"/>
       <use xlink:href="#DejaVuSans-36" x="95.410156"/>
      </g>
     </g>
    </g>
    <g id="ytick_10">
     <g id="line2d_32">
      <g>
       <use xlink:href="#m18a654c1ec" x="63" y="327.543521" style="stroke: #000000; stroke-width: 0.8"/>
      </g>
     </g>
     <g id="text_32">
      <!-- 0.8 -->
      <g transform="translate(53.920312 339.647427) rotate(-90) scale(0.1 -0.1)">
       <defs>
        <path id="DejaVuSans-38" d="M 2034 2216 
Q 1584 2216 1326 1975 
Q 1069 1734 1069 1313 
Q 1069 891 1326 650 
Q 1584 409 2034 409 
Q 2484 409 2743 651 
Q 3003 894 3003 1313 
Q 3003 1734 2745 1975 
Q 2488 2216 2034 2216 
z
M 1403 2484 
Q 997 2584 770 2862 
Q 544 3141 544 3541 
Q 544 4100 942 4425 
Q 1341 4750 2034 4750 
Q 2731 4750 3128 4425 
Q 3525 4100 3525 3541 
Q 3525 3141 3298 2862 
Q 3072 2584 2669 2484 
Q 3125 2378 3379 2068 
Q 3634 1759 3634 1313 
Q 3634 634 3220 271 
Q 2806 -91 2034 -91 
Q 1263 -91 848 271 
Q 434 634 434 1313 
Q 434 1759 690 2068 
Q 947 2378 1403 2484 
z
M 1172 3481 
Q 1172 3119 1398 2916 
Q 1625 2713 2034 2713 
Q 2441 2713 2670 2916 
Q 2900 3119 2900 3481 
Q 2900 3844 2670 4047 
Q 2441 4250 2034 4250 
Q 1625 4250 1398 4047 
Q 1172 3844 1172 3481 
z
" transform="scale(0.015625)"/>
       </defs>
       <use xlink:href="#DejaVuSans-30"/>
       <use xlink:href="#DejaVuSans-2e" x="63.623047"/>
       <use xlink:href="#DejaVuSans-38" x="95.410156"/>
      </g>
     </g>
    </g>
    <g id="ytick_11">
     <g id="line2d_33">
      <g>
       <use xlink:href="#m18a654c1ec" x="63" y="299.293947" style="stroke: #000000; stroke-width: 0.8"/>
      </g>
     </g>
     <g id="text_33">
      <!-- 1.0 -->
      <g transform="translate(53.920312 311.397853) rotate(-90) scale(0.1 -0.1)">
       <use xlink:href="#DejaVuSans-31"/>
       <use xlink:href="#DejaVuSans-2e" x="63.623047"/>
       <use xlink:href="#DejaVuSans-30" x="95.410156"/>
      </g>
     </g>
    </g>
    <g id="text_34">
     <!-- Tensão (V) -->
     <g transform="translate(40.242188 386.448281) rotate(-90) scale(0.1 -0.1)">
      <use xlink:href="#DejaVuSans-54"/>
      <use xlink:href="#DejaVuSans-65" x="44.083984"/>
      <use xlink:href="#DejaVuSans-6e" x="105.607422"/>
      <use xlink:href="#DejaVuSans-73" x="168.986328"/>
      <use xlink:href="#DejaVuSans-e3" x="221.085938"/>
      <use xlink:href="#DejaVuSans-6f" x="282.365234"/>
      <use xlink:href="#DejaVuSans-20" x="343.546875"/>
      <use xlink:href="#DejaVuSans-28" x="375.333984"/>
      <use xlink:href="#DejaVuSans-56" x="414.347656"/>
      <use xlink:href="#DejaVuSans-29" x="482.755859"/>
     </g>
    </g>
   </g>
   <g id="line2d_34">
    <path d="M 80.754545 440.541818 
L 83.24267 424.908387 
L 85.730794 410.585162 
L 88.218919 397.474303 
L 90.707043 385.484824 
L 93.195168 374.532135 
L 95.683292 364.537611 
L 98.171417 355.428186 
L 100.659541 347.135977 
L 103.147666 339.597937 
L 105.63579 332.75552 
L 108.123915 326.554376 
L 110.612039 320.944067 
L 113.100164 315.877796 
L 115.588288 311.312159 
L 118.076413 307.206911 
L 120.564537 303.524748 
L 123.052662 300.231101 
L 125.540786 297.293954 
L 128.028911 294.683656 
L 130.517035 292.372766 
L 133.00516 290.335891 
L 135.848731 288.31352 
L 138.692301 286.586199 
L 141.535872 285.124478 
L 144.379443 283.901465 
L 147.57846 282.780437 
L 150.777477 281.898841 
L 154.331941 281.165491 
L 157.886405 280.657543 
L 161.796314 280.322111 
L 166.061671 280.181594 
L 170.682473 280.248526 
L 176.014169 280.552195 
L 182.056757 281.120435 
L 189.52113 282.054292 
L 199.473628 283.53942 
L 241.416298 290.048119 
L 254.212367 291.677586 
L 267.008436 293.080298 
L 280.159951 294.295127 
L 294.022359 295.349808 
L 308.951106 296.26075 
L 325.657084 297.050413 
L 344.495741 297.710194 
L 366.533415 298.249794 
L 393.191892 298.669987 
L 427.670188 298.977915 
L 435.845455 299.02553 
L 435.845455 299.02553 
" clip-path="url(#pcbca7c7d0c)" style="fill: none; stroke: #008000; stroke-width: 1.5; stroke-linecap: square"/>
   </g>
   <g id="patch_9">
    <path d="M 63 448.56 
L 63 272.16 
" style="fill: none; stroke: #000000; stroke-width: 0.8; stroke-linejoin: miter; stroke-linecap: square"/>
   </g>
   <g id="patch_10">
    <path d="M 453.6 448.56 
L 453.6 272.16 
" style="fill: none; stroke: #000000; stroke-width: 0.8; stroke-linejoin: miter; stroke-linecap: square"/>
   </g>
   <g id="patch_11">
    <path d="M 63 448.56 
L 453.6 448.56 
" style="fill: none; stroke: #000000; stroke-width: 0.8; stroke-linejoin: miter; stroke-linecap: square"/>
   </g>
   <g id="patch_12">
    <path d="M 63 272.16 
L 453.6 272.16 
" style="fill: none; stroke: #000000; stroke-width: 0.8; stroke-linejoin: miter; stroke-linecap: square"/>
   </g>
   <g id="legend_2">
    <g id="patch_13">
     <path d="M 290.004688 443.56 
L 446.6 443.56 
Q 448.6 443.56 448.6 441.56 
L 448.6 427.881875 
Q 448.6 425.881875 446.6 425.881875 
L 290.004688 425.881875 
Q 288.004688 425.881875 288.004688 427.881875 
L 288.004688 441.56 
Q 288.004688 443.56 290.004688 443.56 
z
" style="fill: #ffffff; opacity: 0.8; stroke: #cccccc; stroke-linejoin: miter"/>
    </g>
    <g id="line2d_35">
     <path d="M 292.004688 433.980313 
L 302.004688 433.980313 
L 312.004688 433.980313 
" style="fill: none; stroke: #008000; stroke-width: 1.5; stroke-linecap: square"/>
    </g>
    <g id="text_35">
     <!-- Criticamente amortecido -->
     <g transform="translate(320.004688 437.480313) scale(0.1 -0.1)">
      <defs>
       <path id="DejaVuSans-43" d="M 4122 4306 
L 4122 3641 
Q 3803 3938 3442 4084 
Q 3081 4231 2675 4231 
Q 1875 4231 1450 3742 
Q 1025 3253 1025 2328 
Q 1025 1406 1450 917 
Q 1875 428 2675 428 
Q 3081 428 3442 575 
Q 3803 722 4122 1019 
L 4122 359 
Q 3791 134 3420 21 
Q 3050 -91 2638 -91 
Q 1578 -91 968 557 
Q 359 1206 359 2328 
Q 359 3453 968 4101 
Q 1578 4750 2638 4750 
Q 3056 4750 3426 4639 
Q 3797 4528 4122 4306 
z
" transform="scale(0.015625)"/>
       <path id="DejaVuSans-61" d="M 2194 1759 
Q 1497 1759 1228 1600 
Q 959 1441 959 1056 
Q 959 750 1161 570 
Q 1363 391 1709 391 
Q 2188 391 2477 730 
Q 2766 1069 2766 1631 
L 2766 1759 
L 2194 1759 
z
M 3341 1997 
L 3341 0 
L 2766 0 
L 2766 531 
Q 2569 213 2275 61 
Q 1981 -91 1556 -91 
Q 1019 -91 701 211 
Q 384 513 384 1019 
Q 384 1609 779 1909 
Q 1175 2209 1959 2209 
L 2766 2209 
L 2766 2266 
Q 2766 2663 2505 2880 
Q 2244 3097 1772 3097 
Q 1472 3097 1187 3025 
Q 903 2953 641 2809 
L 641 3341 
Q 956 3463 1253 3523 
Q 1550 3584 1831 3584 
Q 2591 3584 2966 3190 
Q 3341 2797 3341 1997 
z
" transform="scale(0.015625)"/>
      </defs>
      <use xlink:href="#DejaVuSans-43"/>
      <use xlink:href="#DejaVuSans-72" x="69.824219"/>
      <use xlink:href="#DejaVuSans-69" x="110.9375"/>
      <use xlink:href="#DejaVuSans-74" x="138.720703"/>
      <use xlink:href="#DejaVuSans-69" x="177.929688"/>
      <use xlink:href="#DejaVuSans-63" x="205.712891"/>
      <use xlink:href="#DejaVuSans-61" x="260.693359"/>
      <use xlink:href="#DejaVuSans-6d" x="321.972656"/>
      <use xlink:href="#DejaVuSans-65" x="419.384766"/>
      <use xlink:href="#DejaVuSans-6e" x="480.908203"/>
      <use xlink:href="#DejaVuSans-74" x="544.287109"/>
      <use xlink:href="#DejaVuSans-65" x="583.496094"/>
      <use xlink:href="#DejaVuSans-20" x="645.019531"/>
      <use xlink:href="#DejaVuSans-61" x="676.806641"/>
      <use xlink:href="#DejaVuSans-6d" x="738.085938"/>
      <use xlink:href="#DejaVuSans-6f" x="835.498047"/>
      <use xlink:href="#DejaVuSans-72" x="896.679688"/>
      <use xlink:href="#DejaVuSans-74" x="937.792969"/>
      <use xlink:href="#DejaVuSans-65" x="977.001953"/>
      <use xlink:href="#DejaVuSans-63" x="1038.525391"/>
      <use xlink:href="#DejaVuSans-69" x="1093.505859"/>
      <use xlink:href="#DejaVuSans-64" x="1121.289062"/>
      <use xlink:href="#DejaVuSans-6f" x="1184.765625"/>
     </g>
    </g>
   </g>
  </g>
 </g>
 <defs>
  <clipPath id="p9bbb1aa239">
   <rect x="63" y="60.48" width="390.6" height="176.4"/>
  </clipPath>
  <clipPath id="pcbca7c7d0c">
   <rect x="63" y="272.16" width="390.6" height="176.4"/>
  </clipPath>
 </defs>
</svg>
